<?xml version="1.0" encoding="UTF-8"?><svg id="Laag_1" xmlns="http://www.w3.org/2000/svg" viewBox="0 0 721 560.34"><defs><style>.cls-1{font-family:AmericanTypewriter-Bold, 'American Typewriter';font-size:16px;}.cls-1,.cls-2,.cls-3,.cls-4,.cls-5,.cls-6,.cls-7{fill:#fff;}.cls-1,.cls-2,.cls-8,.cls-9,.cls-10,.cls-11,.cls-7{font-weight:700;}.cls-12,.cls-13,.cls-3,.cls-4,.cls-14,.cls-5,.cls-15,.cls-16{stroke:#000;stroke-miterlimit:10;}.cls-12,.cls-5{stroke-width:.28px;}.cls-2{font-size:13.53px;}.cls-2,.cls-8,.cls-9,.cls-10,.cls-11,.cls-7{font-family:Arial-BoldMT, Arial;}.cls-17,.cls-8{font-size:12px;}.cls-17,.cls-18{font-family:ArialMT, Arial;}.cls-3{stroke-width:.99px;}.cls-19{font-family:Arial-ItalicMT, Arial;font-size:10.16px;font-style:italic;}.cls-9{font-size:13.84px;}.cls-20{letter-spacing:-.07em;}.cls-21{letter-spacing:-.06em;}.cls-10,.cls-18{font-size:8px;}.cls-11{font-size:10.53px;}.cls-14,.cls-16{fill:none;}.cls-22,.cls-23,.cls-6,.cls-24{stroke-width:0px;}.cls-15,.cls-16{stroke-width:.67px;}.cls-23{fill:#dbdbdb;}.cls-24{fill:#00ff2d;}.cls-7{font-size:10px;}</style></defs><path class="cls-14" d="m22.15,412.77c-4.24,0-7.68-3.61-7.68-8.07v-239.43c0-4.46,3.44-8.07,7.68-8.07h176.14c4.24,0,7.68,3.61,7.68,8.07v239.43c0,4.46-3.44,8.07-7.68,8.07H22.15Z"/><path class="cls-14" d="m263,50.23h187c11,0,16.5,5.5,16.5,16.5v381c0,11-5.5,16.5-16.5,16.5h-187c-11,0-16.5-5.5-16.5-16.5V66.73c0-11,5.5-16.5,16.5-16.5Z"/><rect class="cls-23" x="252.94" y="419.08" width="206.53" height="30"/><polygon class="cls-22" points="386.05 437.72 387.53 436.24 391.74 440.64 390.35 442.02 386.05 437.72"/><path class="cls-22" d="m387.53,436.42l4.04,4.21-1.21,1.21-4.12-4.12,1.3-1.3m0-.36l-1.66,1.66,4.48,4.48,1.56-1.56-4.38-4.57h0Z"/><path class="cls-6" d="m382.98,439.48c-1.69,0-3.27-.66-4.47-1.85-1.19-1.19-1.85-2.78-1.85-4.47s.66-3.27,1.85-4.47c1.19-1.19,2.78-1.85,4.47-1.85s3.27.66,4.47,1.85c2.46,2.46,2.46,6.47,0,8.93-1.19,1.19-2.78,1.85-4.47,1.85Z"/><path class="cls-22" d="m382.98,427.56c1.5,0,2.91.58,3.97,1.64,2.19,2.19,2.19,5.74,0,7.93-1.06,1.06-2.47,1.64-3.97,1.64s-2.91-.58-3.96-1.64c-2.19-2.19-2.19-5.74,0-7.93,1.06-1.06,2.47-1.64,3.96-1.64m0-1.42c-1.8,0-3.6.69-4.97,2.06-2.74,2.74-2.74,7.19,0,9.93,1.37,1.37,3.17,2.06,4.97,2.06s3.6-.69,4.97-2.06c2.74-2.74,2.74-7.19,0-9.93-1.37-1.37-3.17-2.06-4.97-2.06h0Z"/><path class="cls-14" d="m253.1,72.23h206.8v377h-206.8V72.23Z"/><path class="cls-12" d="m443.82,432.68h-1.64c-.26,0-.48-.15-.58-.39s-.05-.5.14-.69l1.16-1.16c.17-.17.26-.4.26-.64s-.09-.47-.26-.64l-1.48-1.48c-.34-.34-.94-.34-1.28,0l-1.16,1.16c-.19.19-.44.24-.69.14-.24-.1-.39-.32-.39-.58v-1.64c0-.5-.41-.9-.9-.9h-2.09c-.5,0-.9.41-.9.9v1.64c0,.26-.15.48-.39.58-.24.1-.5.05-.69-.14l-1.16-1.16c-.34-.34-.94-.34-1.28,0l-1.48,1.48c-.17.17-.26.4-.26.64s.09.47.26.64l1.16,1.16c.19.19.24.44.14.69s-.32.39-.58.39h-1.64c-.5,0-.9.41-.9.9v2.09c0,.5.41.9.9.9h1.64c.26,0,.48.15.58.39s.05.5-.14.69l-1.16,1.16c-.17.17-.26.4-.26.64s.09.47.26.64l1.48,1.48c.34.34.94.34,1.28,0l1.16-1.16c.19-.19.44-.24.69-.14.24.1.39.32.39.58v1.64c0,.5.41.9.9.9h2.09c.5,0,.9-.41.9-.9v-1.64c0-.26.15-.48.39-.58.24-.1.5-.05.69.14l1.16,1.16c.34.34.94.34,1.28,0l1.48-1.48c.17-.17.26-.4.26-.64s-.09-.47-.26-.64l-1.16-1.16c-.19-.19-.24-.44-.14-.69s.32-.39.58-.39h1.64c.5,0,.9-.41.9-.9v-2.09c0-.5-.41-.9-.9-.9Z"/><path class="cls-5" d="m444.08,435.67c0,.14-.11.25-.25.25h-1.64c-.53,0-.98.3-1.18.79-.2.49-.1,1.02.28,1.4l1.16,1.16c.1.1.1.26,0,.36l-1.48,1.48c-.1.1-.26.1-.36,0l-1.16-1.16c-.37-.37-.91-.48-1.4-.28-.49.2-.79.66-.79,1.18v1.64c0,.14-.11.25-.25.25h-2.09c-.14,0-.25-.11-.25-.25v-1.64c0-.53-.3-.98-.79-1.18-.16-.07-.33-.1-.5-.1-.33,0-.65.13-.9.38l-1.16,1.16c-.1.1-.26.1-.36,0l-1.48-1.48c-.1-.1-.1-.26,0-.36l1.16-1.16c.37-.37.48-.91.28-1.4-.2-.49-.66-.79-1.18-.79h-1.64c-.14,0-.25-.11-.25-.25v-2.09c0-.14.11-.25.25-.25h1.64c.53,0,.98-.3,1.18-.79.2-.49.1-1.02-.28-1.4l-1.16-1.16c-.1-.1-.1-.26,0-.36l1.48-1.48c.1-.1.26-.1.36,0l1.16,1.16c.37.37.91.48,1.4.28.49-.2.79-.66.79-1.18v-1.64c0-.14.11-.25.25-.25h2.09c.14,0,.25.11.25.25v1.64c0,.53.3.98.79,1.18.49.2,1.02.1,1.4-.28l1.16-1.16c.1-.1.26-.1.36,0l1.48,1.48c.1.1.1.26,0,.36l-1.16,1.16c-.37.37-.48.91-.28,1.4.2.49.66.79,1.18.79h1.64c.14,0,.25.11.25.25v2.09Z"/><path class="cls-12" d="m435.95,431.7c-1.61,0-2.93,1.31-2.93,2.93s1.31,2.93,2.93,2.93,2.93-1.31,2.93-2.93-1.31-2.93-2.93-2.93Zm0,5.2c-1.25,0-2.28-1.02-2.28-2.28s1.02-2.28,2.28-2.28,2.28,1.02,2.28,2.28-1.02,2.28-2.28,2.28Z"/><path class="cls-12" d="m443.82,432.68h-1.64c-.26,0-.48-.15-.58-.39s-.05-.5.14-.69l1.16-1.16c.17-.17.26-.4.26-.64s-.09-.47-.26-.64l-1.48-1.48c-.34-.34-.94-.34-1.28,0l-1.16,1.16c-.19.19-.44.24-.69.14-.24-.1-.39-.32-.39-.58v-1.64c0-.5-.41-.9-.9-.9h-2.09c-.5,0-.9.41-.9.9v1.64c0,.26-.15.48-.39.58-.24.1-.5.05-.69-.14l-1.16-1.16c-.34-.34-.94-.34-1.28,0l-1.48,1.48c-.17.17-.26.4-.26.64s.09.47.26.64l1.16,1.16c.19.19.24.44.14.69s-.32.39-.58.39h-1.64c-.5,0-.9.41-.9.9v2.09c0,.5.41.9.9.9h1.64c.26,0,.48.15.58.39s.05.5-.14.69l-1.16,1.16c-.17.17-.26.4-.26.64s.09.47.26.64l1.48,1.48c.34.34.94.34,1.28,0l1.16-1.16c.19-.19.44-.24.69-.14.24.1.39.32.39.58v1.64c0,.5.41.9.9.9h2.09c.5,0,.9-.41.9-.9v-1.64c0-.26.15-.48.39-.58.24-.1.5-.05.69.14l1.16,1.16c.34.34.94.34,1.28,0l1.48-1.48c.17-.17.26-.4.26-.64s-.09-.47-.26-.64l-1.16-1.16c-.19-.19-.24-.44-.14-.69s.32-.39.58-.39h1.64c.5,0,.9-.41.9-.9v-2.09c0-.5-.41-.9-.9-.9Z"/><path class="cls-5" d="m444.08,435.67c0,.14-.11.25-.25.25h-1.64c-.53,0-.98.3-1.18.79-.2.49-.1,1.02.28,1.4l1.16,1.16c.1.1.1.26,0,.36l-1.48,1.48c-.1.1-.26.1-.36,0l-1.16-1.16c-.37-.37-.91-.48-1.4-.28-.49.2-.79.66-.79,1.18v1.64c0,.14-.11.25-.25.25h-2.09c-.14,0-.25-.11-.25-.25v-1.64c0-.53-.3-.98-.79-1.18-.16-.07-.33-.1-.5-.1-.33,0-.65.13-.9.38l-1.16,1.16c-.1.1-.26.1-.36,0l-1.48-1.48c-.1-.1-.1-.26,0-.36l1.16-1.16c.37-.37.48-.91.28-1.4-.2-.49-.66-.79-1.18-.79h-1.64c-.14,0-.25-.11-.25-.25v-2.09c0-.14.11-.25.25-.25h1.64c.53,0,.98-.3,1.18-.79.2-.49.1-1.02-.28-1.4l-1.16-1.16c-.1-.1-.1-.26,0-.36l1.48-1.48c.1-.1.26-.1.36,0l1.16,1.16c.37.37.91.48,1.4.28.49-.2.79-.66.79-1.18v-1.64c0-.14.11-.25.25-.25h2.09c.14,0,.25.11.25.25v1.64c0,.53.3.98.79,1.18.49.2,1.02.1,1.4-.28l1.16-1.16c.1-.1.26-.1.36,0l1.48,1.48c.1.1.1.26,0,.36l-1.16,1.16c-.37.37-.48.91-.28,1.4.2.49.66.79,1.18.79h1.64c.14,0,.25.11.25.25v2.09Z"/><path class="cls-12" d="m435.95,431.7c-1.61,0-2.93,1.31-2.93,2.93s1.31,2.93,2.93,2.93,2.93-1.31,2.93-2.93-1.31-2.93-2.93-2.93Zm0,5.2c-1.25,0-2.28-1.02-2.28-2.28s1.02-2.28,2.28-2.28,2.28,1.02,2.28,2.28-1.02,2.28-2.28,2.28Z"/><text class="cls-19" transform="translate(520.02 187.79)"><tspan x="0" y="0">Dieet/Allergie</tspan></text><text class="cls-19" transform="translate(520.02 264.79)"><tspan x="0" y="0">Noodoproep</tspan></text><text class="cls-9" transform="translate(522.89 98.1)"><tspan x="0" y="0">Bram</tspan></text><path class="cls-24" d="m624.22,398.88c-3.82,0-6.91-3.25-6.91-7.26v-12.61c0-4.01,3.09-7.26,6.91-7.26h63c3.82,0,6.91,3.25,6.91,7.26v12.61c0,4.01-3.09,7.26-6.91,7.26h-63Z"/><text class="cls-2" transform="translate(636.55 389.9)"><tspan x="0" y="0">Save</tspan></text><path class="cls-14" d="m517,50.23h187c11,0,16.5,5.5,16.5,16.5v381c0,11-5.5,16.5-16.5,16.5h-187c-11,0-16.5-5.5-16.5-16.5V66.73c0-11,5.5-16.5,16.5-16.5Z"/><rect class="cls-23" x="506.94" y="419.08" width="206.53" height="30"/><polygon class="cls-22" points="640.05 437.72 641.53 436.24 645.74 440.64 644.35 442.02 640.05 437.72"/><path class="cls-22" d="m641.53,436.42l4.04,4.21-1.21,1.21-4.12-4.12,1.3-1.3m0-.36l-1.66,1.66,4.48,4.48,1.56-1.56-4.38-4.57h0Z"/><path class="cls-14" d="m507.1,72.23h206.8v377h-206.8V72.23Z"/><path class="cls-14" d="m528.15,243.48c-4.24,0-7.68-3.61-7.68-8.07v-32.14c0-4.46,3.44-8.07,7.68-8.07h162.14c4.24,0,7.68,3.61,7.68,8.07v32.14c0,4.46-3.44,8.07-7.68,8.07h-162.14Z"/><path class="cls-14" d="m528.15,292.48c-4.24,0-7.68-3.61-7.68-8.07v-5.14c0-4.46,3.44-8.07,7.68-8.07h162.14c4.24,0,7.68,3.61,7.68,8.07v5.14c0,4.46-3.44,8.07-7.68,8.07h-162.14Z"/><path class="cls-16" d="m516.25,136.25c0-13.3,10.78-24.08,24.08-24.08s24.08,10.78,24.08,24.08-10.78,24.08-24.08,24.08-24.08-10.78-24.08-24.08Z"/><path class="cls-16" d="m533.11,129.02c0-3.99,3.23-7.22,7.22-7.22s7.22,3.23,7.22,7.22-3.23,7.22-7.22,7.22-7.22-3.23-7.22-7.22Z"/><path class="cls-16" d="m532.17,136.25h16.32c1.78,0,2.68.89,2.68,2.68v11.77h-21.67v-11.77c0-1.78.89-2.68,2.68-2.68Z"/><path class="cls-3" d="m322.52,434.13c0-4.97,4.03-8.99,8.99-8.99s8.99,4.03,8.99,8.99-4.03,8.99-8.99,8.99-8.99-4.03-8.99-8.99Z"/><path class="cls-15" d="m328.81,431.44c0-1.49,1.21-2.7,2.7-2.7s2.7,1.21,2.7,2.7-1.21,2.7-2.7,2.7-2.7-1.21-2.7-2.7Z"/><path class="cls-15" d="m328.46,434.13h6.1c.67,0,1,.33,1,1v4.4h-8.09v-4.4c0-.67.33-1,1-1Z"/><path class="cls-14" d="m268.15,115.48c-4.24,0-7.68-3.61-7.68-8.07v-14.14c0-4.46,3.44-8.07,7.68-8.07h176.14c4.24,0,7.68,3.61,7.68,8.07v14.14c0,4.46-3.44,8.07-7.68,8.07h-176.14Z"/><text class="cls-17" transform="translate(269.11 104.41)"><tspan x="0" y="0">Bram</tspan></text><circle class="cls-14" cx="436.6" cy="100.69" r="6.33"/><path class="cls-22" d="m437.51,98.31c.22,0,.34.16.34.47v3.61c0,.41.08.61.23.61.03,0,.09,0,.17-.03s.15-.03.21-.03c.34,0,.5.21.5.62,0,.55-.24.83-.71.83-.08,0-.3-.02-.67-.06-.22-.02-.48-.04-.77-.04-.14,0-.36.02-.64.05-.28.03-.49.05-.62.05-.22,0-.39-.07-.53-.22-.14-.15-.2-.34-.2-.57,0-.46.19-.68.58-.68l.31.07s.06.01.08.01c.14,0,.22-.22.22-.67v-1.94c0-.46-.07-.68-.2-.68-.02,0-.1.02-.22.06-.08.02-.14.02-.19.02-.38,0-.58-.22-.58-.67,0-.24.07-.43.2-.58.14-.15.32-.22.54-.22.09,0,.22.01.38.04.28.04.5.06.67.06.14,0,.31-.02.53-.05.22-.03.34-.05.36-.05Zm-.68-.46c-.3,0-.55-.11-.77-.32-.22-.22-.32-.47-.32-.77s.11-.56.32-.77.47-.32.77-.32.56.11.77.32.32.47.32.77-.11.56-.32.77-.47.32-.77.32Z"/><path class="cls-14" d="m268.15,153.48c-4.24,0-7.68-3.61-7.68-8.07v-14.14c0-4.46,3.44-8.07,7.68-8.07h176.14c4.24,0,7.68,3.61,7.68,8.07v14.14c0,4.46-3.44,8.07-7.68,8.07h-176.14Z"/><text class="cls-17" transform="translate(269.11 142.41)"><tspan x="0" y="0">Emilie</tspan></text><circle class="cls-14" cx="436.6" cy="138.69" r="6.33"/><path class="cls-22" d="m437.51,136.31c.22,0,.34.16.34.47v3.61c0,.41.08.61.23.61.03,0,.09,0,.17-.03s.15-.03.21-.03c.34,0,.5.21.5.62,0,.55-.24.83-.71.83-.08,0-.3-.02-.67-.06-.22-.02-.48-.04-.77-.04-.14,0-.36.02-.64.05-.28.03-.49.05-.62.05-.22,0-.39-.07-.53-.22-.14-.15-.2-.34-.2-.57,0-.46.19-.68.58-.68l.31.07s.06.01.08.01c.14,0,.22-.22.22-.67v-1.94c0-.46-.07-.68-.2-.68-.02,0-.1.02-.22.06-.08.02-.14.02-.19.02-.38,0-.58-.22-.58-.67,0-.24.07-.43.2-.58.14-.15.32-.22.54-.22.09,0,.22.01.38.04.28.04.5.06.67.06.14,0,.31-.02.53-.05.22-.03.34-.05.36-.05Zm-.68-.46c-.3,0-.55-.11-.77-.32-.22-.22-.32-.47-.32-.77s.11-.56.32-.77.47-.32.77-.32.56.11.77.32.32.47.32.77-.11.56-.32.77-.47.32-.77.32Z"/><path class="cls-14" d="m268.15,191.48c-4.24,0-7.68-3.61-7.68-8.07v-14.14c0-4.46,3.44-8.07,7.68-8.07h176.14c4.24,0,7.68,3.61,7.68,8.07v14.14c0,4.46-3.44,8.07-7.68,8.07h-176.14Z"/><text class="cls-17" transform="translate(269.11 180.41)"><tspan x="0" y="0">Suzie</tspan></text><circle class="cls-14" cx="436.6" cy="176.69" r="6.33"/><path class="cls-22" d="m437.51,174.31c.22,0,.34.16.34.47v3.61c0,.41.08.61.23.61.03,0,.09,0,.17-.03s.15-.03.21-.03c.34,0,.5.21.5.62,0,.55-.24.83-.71.83-.08,0-.3-.02-.67-.06-.22-.02-.48-.04-.77-.04-.14,0-.36.02-.64.05-.28.03-.49.05-.62.05-.22,0-.39-.07-.53-.22-.14-.15-.2-.34-.2-.57,0-.46.19-.68.58-.68l.31.07s.06.01.08.01c.14,0,.22-.22.22-.67v-1.94c0-.46-.07-.68-.2-.68-.02,0-.1.02-.22.06-.08.02-.14.02-.19.02-.38,0-.58-.22-.58-.67,0-.24.07-.43.2-.58.14-.15.32-.22.54-.22.09,0,.22.01.38.04.28.04.5.06.67.06.14,0,.31-.02.53-.05.22-.03.34-.05.36-.05Zm-.68-.46c-.3,0-.55-.11-.77-.32-.22-.22-.32-.47-.32-.77s.11-.56.32-.77.47-.32.77-.32.56.11.77.32.32.47.32.77-.11.56-.32.77-.47.32-.77.32Z"/><path class="cls-14" d="m268.15,229.48c-4.24,0-7.68-3.61-7.68-8.07v-14.14c0-4.46,3.44-8.07,7.68-8.07h176.14c4.24,0,7.68,3.61,7.68,8.07v14.14c0,4.46-3.44,8.07-7.68,8.07h-176.14Z"/><text class="cls-17" transform="translate(269.11 218.41)"><tspan x="0" y="0">Gert</tspan></text><circle class="cls-14" cx="436.6" cy="214.69" r="6.33"/><path class="cls-22" d="m437.51,212.31c.22,0,.34.16.34.47v3.61c0,.41.08.61.23.61.03,0,.09,0,.17-.03s.15-.03.21-.03c.34,0,.5.21.5.62,0,.55-.24.83-.71.83-.08,0-.3-.02-.67-.06-.22-.02-.48-.04-.77-.04-.14,0-.36.02-.64.05-.28.03-.49.05-.62.05-.22,0-.39-.07-.53-.22-.14-.15-.2-.34-.2-.57,0-.46.19-.68.58-.68l.31.07s.06.01.08.01c.14,0,.22-.22.22-.67v-1.94c0-.46-.07-.68-.2-.68-.02,0-.1.02-.22.06-.08.02-.14.02-.19.02-.38,0-.58-.22-.58-.67,0-.24.07-.43.2-.58.14-.15.32-.22.54-.22.09,0,.22.01.38.04.28.04.5.06.67.06.14,0,.31-.02.53-.05.22-.03.34-.05.36-.05Zm-.68-.46c-.3,0-.55-.11-.77-.32-.22-.22-.32-.47-.32-.77s.11-.56.32-.77.47-.32.77-.32.56.11.77.32.32.47.32.77-.11.56-.32.77-.47.32-.77.32Z"/><path class="cls-14" d="m268.15,267.48c-4.24,0-7.68-3.61-7.68-8.07v-14.14c0-4.46,3.44-8.07,7.68-8.07h176.14c4.24,0,7.68,3.61,7.68,8.07v14.14c0,4.46-3.44,8.07-7.68,8.07h-176.14Z"/><text class="cls-17" transform="translate(269.11 256.41)"><tspan x="0" y="0">...</tspan></text><circle class="cls-14" cx="436.6" cy="252.69" r="6.33"/><path class="cls-22" d="m437.51,250.31c.22,0,.34.16.34.47v3.61c0,.41.08.61.23.61.03,0,.09,0,.17-.03s.15-.03.21-.03c.34,0,.5.21.5.62,0,.55-.24.83-.71.83-.08,0-.3-.02-.67-.06-.22-.02-.48-.04-.77-.04-.14,0-.36.02-.64.05-.28.03-.49.05-.62.05-.22,0-.39-.07-.53-.22-.14-.15-.2-.34-.2-.57,0-.46.19-.68.58-.68l.31.07s.06.01.08.01c.14,0,.22-.22.22-.67v-1.94c0-.46-.07-.68-.2-.68-.02,0-.1.02-.22.06-.08.02-.14.02-.19.02-.38,0-.58-.22-.58-.67,0-.24.07-.43.2-.58.14-.15.32-.22.54-.22.09,0,.22.01.38.04.28.04.5.06.67.06.14,0,.31-.02.53-.05.22-.03.34-.05.36-.05Zm-.68-.46c-.3,0-.55-.11-.77-.32-.22-.22-.32-.47-.32-.77s.11-.56.32-.77.47-.32.77-.32.56.11.77.32.32.47.32.77-.11.56-.32.77-.47.32-.77.32Z"/><path class="cls-14" d="m268.15,305.48c-4.24,0-7.68-3.61-7.68-8.07v-14.14c0-4.46,3.44-8.07,7.68-8.07h176.14c4.24,0,7.68,3.61,7.68,8.07v14.14c0,4.46-3.44,8.07-7.68,8.07h-176.14Z"/><text class="cls-17" transform="translate(269.11 294.41)"><tspan x="0" y="0">...</tspan></text><circle class="cls-14" cx="436.6" cy="290.69" r="6.33"/><path class="cls-22" d="m437.51,288.31c.22,0,.34.16.34.47v3.61c0,.41.08.61.23.61.03,0,.09,0,.17-.03s.15-.03.21-.03c.34,0,.5.21.5.62,0,.55-.24.83-.71.83-.08,0-.3-.02-.67-.06-.22-.02-.48-.04-.77-.04-.14,0-.36.02-.64.05-.28.03-.49.05-.62.05-.22,0-.39-.07-.53-.22-.14-.15-.2-.34-.2-.57,0-.46.19-.68.58-.68l.31.07s.06.01.08.01c.14,0,.22-.22.22-.67v-1.94c0-.46-.07-.68-.2-.68-.02,0-.1.02-.22.06-.08.02-.14.02-.19.02-.38,0-.58-.22-.58-.67,0-.24.07-.43.2-.58.14-.15.32-.22.54-.22.09,0,.22.01.38.04.28.04.5.06.67.06.14,0,.31-.02.53-.05.22-.03.34-.05.36-.05Zm-.68-.46c-.3,0-.55-.11-.77-.32-.22-.22-.32-.47-.32-.77s.11-.56.32-.77.47-.32.77-.32.56.11.77.32.32.47.32.77-.11.56-.32.77-.47.32-.77.32Z"/><path class="cls-14" d="m268.15,343.48c-4.24,0-7.68-3.61-7.68-8.07v-14.14c0-4.46,3.44-8.07,7.68-8.07h176.14c4.24,0,7.68,3.61,7.68,8.07v14.14c0,4.46-3.44,8.07-7.68,8.07h-176.14Z"/><text class="cls-17" transform="translate(269.11 332.41)"><tspan x="0" y="0">...</tspan></text><circle class="cls-14" cx="436.6" cy="328.69" r="6.33"/><path class="cls-22" d="m437.51,326.31c.22,0,.34.16.34.47v3.61c0,.41.08.61.23.61.03,0,.09,0,.17-.03s.15-.03.21-.03c.34,0,.5.21.5.62,0,.55-.24.83-.71.83-.08,0-.3-.02-.67-.06-.22-.02-.48-.04-.77-.04-.14,0-.36.02-.64.05-.28.03-.49.05-.62.05-.22,0-.39-.07-.53-.22-.14-.15-.2-.34-.2-.57,0-.46.19-.68.58-.68l.31.07s.06.01.08.01c.14,0,.22-.22.22-.67v-1.94c0-.46-.07-.68-.2-.68-.02,0-.1.02-.22.06-.08.02-.14.02-.19.02-.38,0-.58-.22-.58-.67,0-.24.07-.43.2-.58.14-.15.32-.22.54-.22.09,0,.22.01.38.04.28.04.5.06.67.06.14,0,.31-.02.53-.05.22-.03.34-.05.36-.05Zm-.68-.46c-.3,0-.55-.11-.77-.32-.22-.22-.32-.47-.32-.77s.11-.56.32-.77.47-.32.77-.32.56.11.77.32.32.47.32.77-.11.56-.32.77-.47.32-.77.32Z"/><path class="cls-14" d="m268.15,381.48c-4.24,0-7.68-3.61-7.68-8.07v-14.14c0-4.46,3.44-8.07,7.68-8.07h176.14c4.24,0,7.68,3.61,7.68,8.07v14.14c0,4.46-3.44,8.07-7.68,8.07h-176.14Z"/><text class="cls-17" transform="translate(269.11 370.41)"><tspan x="0" y="0">...</tspan></text><circle class="cls-14" cx="436.6" cy="366.69" r="6.33"/><path class="cls-22" d="m437.51,364.31c.22,0,.34.16.34.47v3.61c0,.41.08.61.23.61.03,0,.09,0,.17-.03s.15-.03.21-.03c.34,0,.5.21.5.62,0,.55-.24.83-.71.83-.08,0-.3-.02-.67-.06-.22-.02-.48-.04-.77-.04-.14,0-.36.02-.64.05-.28.03-.49.05-.62.05-.22,0-.39-.07-.53-.22-.14-.15-.2-.34-.2-.57,0-.46.19-.68.58-.68l.31.07s.06.01.08.01c.14,0,.22-.22.22-.67v-1.94c0-.46-.07-.68-.2-.68-.02,0-.1.02-.22.06-.08.02-.14.02-.19.02-.38,0-.58-.22-.58-.67,0-.24.07-.43.2-.58.14-.15.32-.22.54-.22.09,0,.22.01.38.04.28.04.5.06.67.06.14,0,.31-.02.53-.05.22-.03.34-.05.36-.05Zm-.68-.46c-.3,0-.55-.11-.77-.32-.22-.22-.32-.47-.32-.77s.11-.56.32-.77.47-.32.77-.32.56.11.77.32.32.47.32.77-.11.56-.32.77-.47.32-.77.32Z"/><path class="cls-6" d="m267.4,426.17v15.96c0,.13.05.25.14.34.09.09.21.14.34.14h17.29c.13,0,.25-.05.34-.14.09-.09.14-.21.14-.34v-15.96"/><path class="cls-22" d="m279.88,424.07c0-.43.43-.78.96-.78s.96.35.96.78v3.44c0,.43-.43.78-.96.78s-.96-.35-.96-.78v-3.44h0Zm-2.57,16.44c-.06,0-.1-.24-.1-.53s.04-.53.1-.53h2.62c.06,0,.1.24.1.53s-.04.53-.1.53h-2.62Zm-8.34-6.09c-.06,0-.1-.24-.1-.53s.04-.53.1-.53h2.62c.06,0,.1.24.1.53s-.04.53-.1.53h-2.62Zm4.17,0c-.06,0-.1-.24-.1-.53s.04-.53.1-.53h2.62c.06,0,.1.24.1.53s-.04.53-.1.53h-2.62Zm4.17,0c-.06,0-.1-.24-.1-.53s.04-.53.1-.53h2.62c.06,0,.1.24.1.53s-.04.53-.1.53h-2.62Zm4.17,0c-.06,0-.1-.24-.1-.53s.04-.53.1-.53h2.62c.06,0,.1.24.1.53s-.04.53-.1.53h-2.62Zm-12.51,3.05c-.06,0-.1-.24-.1-.53s.04-.53.1-.53h2.62c.06,0,.1.24.1.53s-.04.53-.1.53h-2.62Zm4.17,0c-.06,0-.1-.24-.1-.53s.04-.53.1-.53h2.62c.06,0,.1.24.1.53s-.04.53-.1.53h-2.62Zm4.17,0c-.06,0-.1-.24-.1-.53s.04-.53.1-.53h2.62c.06,0,.1.24.1.53s-.04.53-.1.53h-2.62Zm4.17,0c-.06,0-.1-.24-.1-.53s.04-.53.1-.53h2.62c.06,0,.1.24.1.53s-.04.53-.1.53h-2.62Zm-12.51,3.05c-.06,0-.1-.24-.1-.53s.04-.53.1-.53h2.62c.06,0,.1.24.1.53s-.04.53-.1.53h-2.62Zm4.17,0c-.06,0-.1-.24-.1-.53s.04-.53.1-.53h2.62c.06,0,.1.24.1.53s-.04.53-.1.53h-2.62Zm-1.89-16.44c0-.43.43-.78.96-.78s.96.35.96.78v3.44c0,.43-.43.78-.96.78s-.96-.35-.96-.78v-3.44h0Zm-3.85,6.73h18.26v-3.96c0-.13-.05-.25-.14-.34-.09-.09-.21-.14-.34-.14h-1.75c-.29,0-.53-.24-.53-.53s.24-.53.53-.53h1.75c.43,0,.81.17,1.09.45.28.28.45.67.45,1.09v15.28c0,.43-.17.81-.45,1.09s-.67.45-1.09.45h-17.29c-.43,0-.81-.17-1.09-.45-.28-.28-.45-.67-.45-1.1v-15.28c0-.43.17-.81.45-1.09.28-.28.67-.45,1.09-.45h1.87c.29,0,.53.24.53.53s-.24.53-.53.53h-1.87c-.13,0-.25.05-.34.14-.09.09-.14.21-.14.34v3.96h0Zm18.26,1.06h-18.26v10.26c0,.13.05.25.14.34.09.09.21.14.34.14h17.29c.13,0,.25-.05.34-.14.09-.09.14-.21.14-.34v-10.26h0Zm-10.96-5.51c-.29,0-.53-.24-.53-.53s.24-.53.53-.53h3.57c.29,0,.53.24.53.53s-.24.53-.53.53h-3.57Z"/><path class="cls-6" d="m632.98,439.48c-1.69,0-3.27-.66-4.47-1.85-1.19-1.19-1.85-2.78-1.85-4.47s.66-3.27,1.85-4.47c1.19-1.19,2.78-1.85,4.47-1.85s3.27.66,4.47,1.85c2.46,2.46,2.46,6.47,0,8.93-1.19,1.19-2.78,1.85-4.47,1.85Z"/><path class="cls-22" d="m632.98,427.56c1.5,0,2.91.58,3.97,1.64,2.19,2.19,2.19,5.74,0,7.93-1.06,1.06-2.47,1.64-3.97,1.64s-2.91-.58-3.96-1.64c-2.19-2.19-2.19-5.74,0-7.93,1.06-1.06,2.47-1.64,3.96-1.64m0-1.42c-1.8,0-3.6.69-4.97,2.06-2.74,2.74-2.74,7.19,0,9.93,1.37,1.37,3.17,2.06,4.97,2.06s3.6-.69,4.97-2.06c2.74-2.74,2.74-7.19,0-9.93-1.37-1.37-3.17-2.06-4.97-2.06h0Z"/><path class="cls-12" d="m693.82,432.68h-1.64c-.26,0-.48-.15-.58-.39s-.05-.5.14-.69l1.16-1.16c.17-.17.26-.4.26-.64s-.09-.47-.26-.64l-1.48-1.48c-.34-.34-.94-.34-1.28,0l-1.16,1.16c-.19.19-.44.24-.69.14-.24-.1-.39-.32-.39-.58v-1.64c0-.5-.41-.9-.9-.9h-2.09c-.5,0-.9.41-.9.9v1.64c0,.26-.15.48-.39.58-.24.1-.5.05-.69-.14l-1.16-1.16c-.34-.34-.94-.34-1.28,0l-1.48,1.48c-.17.17-.26.4-.26.64s.09.47.26.64l1.16,1.16c.19.19.24.44.14.69s-.32.39-.58.39h-1.64c-.5,0-.9.41-.9.9v2.09c0,.5.41.9.9.9h1.64c.26,0,.48.15.58.39s.05.5-.14.69l-1.16,1.16c-.17.17-.26.4-.26.64s.09.47.26.64l1.48,1.48c.34.34.94.34,1.28,0l1.16-1.16c.19-.19.44-.24.69-.14.24.1.39.32.39.58v1.64c0,.5.41.9.9.9h2.09c.5,0,.9-.41.9-.9v-1.64c0-.26.15-.48.39-.58.24-.1.5-.05.69.14l1.16,1.16c.34.34.94.34,1.28,0l1.48-1.48c.17-.17.26-.4.26-.64s-.09-.47-.26-.64l-1.16-1.16c-.19-.19-.24-.44-.14-.69s.32-.39.58-.39h1.64c.5,0,.9-.41.9-.9v-2.09c0-.5-.41-.9-.9-.9Z"/><path class="cls-5" d="m694.08,435.67c0,.14-.11.25-.25.25h-1.64c-.53,0-.98.3-1.18.79-.2.49-.1,1.02.28,1.4l1.16,1.16c.1.1.1.26,0,.36l-1.48,1.48c-.1.1-.26.1-.36,0l-1.16-1.16c-.37-.37-.91-.48-1.4-.28-.49.2-.79.66-.79,1.18v1.64c0,.14-.11.25-.25.25h-2.09c-.14,0-.25-.11-.25-.25v-1.64c0-.53-.3-.98-.79-1.18-.16-.07-.33-.1-.5-.1-.33,0-.65.13-.9.38l-1.16,1.16c-.1.1-.26.1-.36,0l-1.48-1.48c-.1-.1-.1-.26,0-.36l1.16-1.16c.37-.37.48-.91.28-1.4-.2-.49-.66-.79-1.18-.79h-1.64c-.14,0-.25-.11-.25-.25v-2.09c0-.14.11-.25.25-.25h1.64c.53,0,.98-.3,1.18-.79.2-.49.1-1.02-.28-1.4l-1.16-1.16c-.1-.1-.1-.26,0-.36l1.48-1.48c.1-.1.26-.1.36,0l1.16,1.16c.37.37.91.48,1.4.28.49-.2.79-.66.79-1.18v-1.64c0-.14.11-.25.25-.25h2.09c.14,0,.25.11.25.25v1.64c0,.53.3.98.79,1.18.49.2,1.02.1,1.4-.28l1.16-1.16c.1-.1.26-.1.36,0l1.48,1.48c.1.1.1.26,0,.36l-1.16,1.16c-.37.37-.48.91-.28,1.4.2.49.66.79,1.18.79h1.64c.14,0,.25.11.25.25v2.09Z"/><path class="cls-12" d="m685.95,431.7c-1.61,0-2.93,1.31-2.93,2.93s1.31,2.93,2.93,2.93,2.93-1.31,2.93-2.93-1.31-2.93-2.93-2.93Zm0,5.2c-1.25,0-2.28-1.02-2.28-2.28s1.02-2.28,2.28-2.28,2.28,1.02,2.28,2.28-1.02,2.28-2.28,2.28Z"/><path class="cls-3" d="m572.52,434.13c0-4.97,4.03-8.99,8.99-8.99s8.99,4.03,8.99,8.99-4.03,8.99-8.99,8.99-8.99-4.03-8.99-8.99Z"/><path class="cls-15" d="m578.81,431.44c0-1.49,1.21-2.7,2.7-2.7s2.7,1.21,2.7,2.7-1.21,2.7-2.7,2.7-2.7-1.21-2.7-2.7Z"/><path class="cls-15" d="m578.46,434.13h6.1c.67,0,1,.33,1,1v4.4h-8.09v-4.4c0-.67.33-1,1-1Z"/><path class="cls-6" d="m517.4,426.17v15.96c0,.13.05.25.14.34.09.09.21.14.34.14h17.29c.13,0,.25-.05.34-.14.09-.09.14-.21.14-.34v-15.96"/><path class="cls-22" d="m529.88,424.07c0-.43.43-.78.96-.78s.96.35.96.78v3.44c0,.43-.43.78-.96.78s-.96-.35-.96-.78v-3.44h0Zm-2.57,16.44c-.06,0-.1-.24-.1-.53s.04-.53.1-.53h2.62c.06,0,.1.24.1.53s-.04.53-.1.53h-2.62Zm-8.34-6.09c-.06,0-.1-.24-.1-.53s.04-.53.1-.53h2.62c.06,0,.1.24.1.53s-.04.53-.1.53h-2.62Zm4.17,0c-.06,0-.1-.24-.1-.53s.04-.53.1-.53h2.62c.06,0,.1.24.1.53s-.04.53-.1.53h-2.62Zm4.17,0c-.06,0-.1-.24-.1-.53s.04-.53.1-.53h2.62c.06,0,.1.24.1.53s-.04.53-.1.53h-2.62Zm4.17,0c-.06,0-.1-.24-.1-.53s.04-.53.1-.53h2.62c.06,0,.1.24.1.53s-.04.53-.1.53h-2.62Zm-12.51,3.05c-.06,0-.1-.24-.1-.53s.04-.53.1-.53h2.62c.06,0,.1.24.1.53s-.04.53-.1.53h-2.62Zm4.17,0c-.06,0-.1-.24-.1-.53s.04-.53.1-.53h2.62c.06,0,.1.24.1.53s-.04.53-.1.53h-2.62Zm4.17,0c-.06,0-.1-.24-.1-.53s.04-.53.1-.53h2.62c.06,0,.1.24.1.53s-.04.53-.1.53h-2.62Zm4.17,0c-.06,0-.1-.24-.1-.53s.04-.53.1-.53h2.62c.06,0,.1.24.1.53s-.04.53-.1.53h-2.62Zm-12.51,3.05c-.06,0-.1-.24-.1-.53s.04-.53.1-.53h2.62c.06,0,.1.24.1.53s-.04.53-.1.53h-2.62Zm4.17,0c-.06,0-.1-.24-.1-.53s.04-.53.1-.53h2.62c.06,0,.1.24.1.53s-.04.53-.1.53h-2.62Zm-1.89-16.44c0-.43.43-.78.96-.78s.96.35.96.78v3.44c0,.43-.43.78-.96.78s-.96-.35-.96-.78v-3.44h0Zm-3.85,6.73h18.26v-3.96c0-.13-.05-.25-.14-.34-.09-.09-.21-.14-.34-.14h-1.75c-.29,0-.53-.24-.53-.53s.24-.53.53-.53h1.75c.43,0,.81.17,1.09.45.28.28.45.67.45,1.09v15.28c0,.43-.17.81-.45,1.09s-.67.45-1.09.45h-17.29c-.43,0-.81-.17-1.09-.45-.28-.28-.45-.67-.45-1.1v-15.28c0-.43.17-.81.45-1.09.28-.28.67-.45,1.09-.45h1.87c.29,0,.53.24.53.53s-.24.53-.53.53h-1.87c-.13,0-.25.05-.34.14-.09.09-.14.21-.14.34v3.96h0Zm18.26,1.06h-18.26v10.26c0,.13.05.25.14.34.09.09.21.14.34.14h17.29c.13,0,.25-.05.34-.14.09-.09.14-.21.14-.34v-10.26h0Zm-10.96-5.51c-.29,0-.53-.24-.53-.53s.24-.53.53-.53h3.57c.29,0,.53.24.53.53s-.24.53-.53.53h-3.57Z"/><path class="cls-14" d="m17,50.23h187c11,0,16.5,5.5,16.5,16.5v381c0,11-5.5,16.5-16.5,16.5H17c-11,0-16.5-5.5-16.5-16.5V66.73c0-11,5.5-16.5,16.5-16.5Z"/><rect class="cls-23" x="6.94" y="419.08" width="206.53" height="30"/><polygon class="cls-22" points="140.05 437.72 141.53 436.24 145.74 440.64 144.35 442.02 140.05 437.72"/><path class="cls-22" d="m141.53,436.42l4.04,4.21-1.21,1.21-4.12-4.12,1.3-1.3m0-.36l-1.66,1.66,4.48,4.48,1.56-1.56-4.38-4.57h0Z"/><path class="cls-6" d="m136.98,439.48c-1.69,0-3.27-.66-4.47-1.85-1.19-1.19-1.85-2.78-1.85-4.47s.66-3.27,1.85-4.47c1.19-1.19,2.78-1.85,4.47-1.85s3.27.66,4.47,1.85c2.46,2.46,2.46,6.47,0,8.93-1.19,1.19-2.78,1.85-4.47,1.85Z"/><path class="cls-22" d="m136.98,427.56c1.5,0,2.91.58,3.97,1.64,2.19,2.19,2.19,5.74,0,7.93-1.06,1.06-2.47,1.64-3.97,1.64s-2.91-.58-3.96-1.64c-2.19-2.19-2.19-5.74,0-7.93,1.06-1.06,2.47-1.64,3.96-1.64m0-1.42c-1.8,0-3.6.69-4.97,2.06-2.74,2.74-2.74,7.19,0,9.93,1.37,1.37,3.17,2.06,4.97,2.06s3.6-.69,4.97-2.06c2.74-2.74,2.74-7.19,0-9.93-1.37-1.37-3.17-2.06-4.97-2.06h0Z"/><path class="cls-14" d="m7.1,72.23h206.8v377H7.1V72.23Z"/><path class="cls-12" d="m197.82,432.68h-1.64c-.26,0-.48-.15-.58-.39s-.05-.5.14-.69l1.16-1.16c.17-.17.26-.4.26-.64s-.09-.47-.26-.64l-1.48-1.48c-.34-.34-.94-.34-1.28,0l-1.16,1.16c-.19.19-.44.24-.69.14-.24-.1-.39-.32-.39-.58v-1.64c0-.5-.41-.9-.9-.9h-2.09c-.5,0-.9.41-.9.9v1.64c0,.26-.15.48-.39.58-.24.1-.5.05-.69-.14l-1.16-1.16c-.34-.34-.94-.34-1.28,0l-1.48,1.48c-.17.17-.26.4-.26.64s.09.47.26.64l1.16,1.16c.19.19.24.44.14.69s-.32.39-.58.39h-1.64c-.5,0-.9.41-.9.9v2.09c0,.5.41.9.9.9h1.64c.26,0,.48.15.58.39s.05.5-.14.69l-1.16,1.16c-.17.17-.26.4-.26.64s.09.47.26.64l1.48,1.48c.34.34.94.34,1.28,0l1.16-1.16c.19-.19.44-.24.69-.14.24.1.39.32.39.58v1.64c0,.5.41.9.9.9h2.09c.5,0,.9-.41.9-.9v-1.64c0-.26.15-.48.39-.58.24-.1.5-.05.69.14l1.16,1.16c.34.34.94.34,1.28,0l1.48-1.48c.17-.17.26-.4.26-.64s-.09-.47-.26-.64l-1.16-1.16c-.19-.19-.24-.44-.14-.69s.32-.39.58-.39h1.64c.5,0,.9-.41.9-.9v-2.09c0-.5-.41-.9-.9-.9Z"/><path class="cls-5" d="m198.08,435.67c0,.14-.11.25-.25.25h-1.64c-.53,0-.98.3-1.18.79-.2.49-.1,1.02.28,1.4l1.16,1.16c.1.1.1.26,0,.36l-1.48,1.48c-.1.1-.26.1-.36,0l-1.16-1.16c-.37-.37-.91-.48-1.4-.28-.49.2-.79.66-.79,1.18v1.64c0,.14-.11.25-.25.25h-2.09c-.14,0-.25-.11-.25-.25v-1.64c0-.53-.3-.98-.79-1.18-.16-.07-.33-.1-.5-.1-.33,0-.65.13-.9.38l-1.16,1.16c-.1.1-.26.1-.36,0l-1.48-1.48c-.1-.1-.1-.26,0-.36l1.16-1.16c.37-.37.48-.91.28-1.4-.2-.49-.66-.79-1.18-.79h-1.64c-.14,0-.25-.11-.25-.25v-2.09c0-.14.11-.25.25-.25h1.64c.53,0,.98-.3,1.18-.79.2-.49.1-1.02-.28-1.4l-1.16-1.16c-.1-.1-.1-.26,0-.36l1.48-1.48c.1-.1.26-.1.36,0l1.16,1.16c.37.37.91.48,1.4.28.49-.2.79-.66.79-1.18v-1.64c0-.14.11-.25.25-.25h2.09c.14,0,.25.11.25.25v1.64c0,.53.3.98.79,1.18.49.2,1.02.1,1.4-.28l1.16-1.16c.1-.1.26-.1.36,0l1.48,1.48c.1.1.1.26,0,.36l-1.16,1.16c-.37.37-.48.91-.28,1.4.2.49.66.79,1.18.79h1.64c.14,0,.25.11.25.25v2.09Z"/><path class="cls-12" d="m189.95,431.7c-1.61,0-2.93,1.31-2.93,2.93s1.31,2.93,2.93,2.93,2.93-1.31,2.93-2.93-1.31-2.93-2.93-2.93Zm0,5.2c-1.25,0-2.28-1.02-2.28-2.28s1.02-2.28,2.28-2.28,2.28,1.02,2.28,2.28-1.02,2.28-2.28,2.28Z"/><path class="cls-12" d="m197.82,432.68h-1.64c-.26,0-.48-.15-.58-.39s-.05-.5.14-.69l1.16-1.16c.17-.17.26-.4.26-.64s-.09-.47-.26-.64l-1.48-1.48c-.34-.34-.94-.34-1.28,0l-1.16,1.16c-.19.19-.44.24-.69.14-.24-.1-.39-.32-.39-.58v-1.64c0-.5-.41-.9-.9-.9h-2.09c-.5,0-.9.41-.9.9v1.64c0,.26-.15.48-.39.58-.24.1-.5.05-.69-.14l-1.16-1.16c-.34-.34-.94-.34-1.28,0l-1.48,1.48c-.17.17-.26.4-.26.64s.09.47.26.64l1.16,1.16c.19.19.24.44.14.69s-.32.39-.58.39h-1.64c-.5,0-.9.41-.9.9v2.09c0,.5.41.9.9.9h1.64c.26,0,.48.15.58.39s.05.5-.14.69l-1.16,1.16c-.17.17-.26.4-.26.64s.09.47.26.64l1.48,1.48c.34.34.94.34,1.28,0l1.16-1.16c.19-.19.44-.24.69-.14.24.1.39.32.39.58v1.64c0,.5.41.9.9.9h2.09c.5,0,.9-.41.9-.9v-1.64c0-.26.15-.48.39-.58.24-.1.5-.05.69.14l1.16,1.16c.34.34.94.34,1.28,0l1.48-1.48c.17-.17.26-.4.26-.64s-.09-.47-.26-.64l-1.16-1.16c-.19-.19-.24-.44-.14-.69s.32-.39.58-.39h1.64c.5,0,.9-.41.9-.9v-2.09c0-.5-.41-.9-.9-.9Z"/><path class="cls-5" d="m198.08,435.67c0,.14-.11.25-.25.25h-1.64c-.53,0-.98.3-1.18.79-.2.49-.1,1.02.28,1.4l1.16,1.16c.1.1.1.26,0,.36l-1.48,1.48c-.1.1-.26.1-.36,0l-1.16-1.16c-.37-.37-.91-.48-1.4-.28-.49.2-.79.66-.79,1.18v1.64c0,.14-.11.25-.25.25h-2.09c-.14,0-.25-.11-.25-.25v-1.64c0-.53-.3-.98-.79-1.18-.16-.07-.33-.1-.5-.1-.33,0-.65.13-.9.38l-1.16,1.16c-.1.1-.26.1-.36,0l-1.48-1.48c-.1-.1-.1-.26,0-.36l1.16-1.16c.37-.37.48-.91.28-1.4-.2-.49-.66-.79-1.18-.79h-1.64c-.14,0-.25-.11-.25-.25v-2.09c0-.14.11-.25.25-.25h1.64c.53,0,.98-.3,1.18-.79.2-.49.1-1.02-.28-1.4l-1.16-1.16c-.1-.1-.1-.26,0-.36l1.48-1.48c.1-.1.26-.1.36,0l1.16,1.16c.37.37.91.48,1.4.28.49-.2.79-.66.79-1.18v-1.64c0-.14.11-.25.25-.25h2.09c.14,0,.25.11.25.25v1.64c0,.53.3.98.79,1.18.49.2,1.02.1,1.4-.28l1.16-1.16c.1-.1.26-.1.36,0l1.48,1.48c.1.1.1.26,0,.36l-1.16,1.16c-.37.37-.48.91-.28,1.4.2.49.66.79,1.18.79h1.64c.14,0,.25.11.25.25v2.09Z"/><path class="cls-12" d="m189.95,431.7c-1.61,0-2.93,1.31-2.93,2.93s1.31,2.93,2.93,2.93,2.93-1.31,2.93-2.93-1.31-2.93-2.93-2.93Zm0,5.2c-1.25,0-2.28-1.02-2.28-2.28s1.02-2.28,2.28-2.28,2.28,1.02,2.28,2.28-1.02,2.28-2.28,2.28Z"/><path class="cls-3" d="m76.52,434.13c0-4.97,4.03-8.99,8.99-8.99s8.99,4.03,8.99,8.99-4.03,8.99-8.99,8.99-8.99-4.03-8.99-8.99Z"/><path class="cls-15" d="m82.81,431.44c0-1.49,1.21-2.7,2.7-2.7s2.7,1.21,2.7,2.7-1.21,2.7-2.7,2.7-2.7-1.21-2.7-2.7Z"/><path class="cls-15" d="m82.46,434.13h6.1c.67,0,1,.33,1,1v4.4h-8.09v-4.4c0-.67.33-1,1-1Z"/><path class="cls-6" d="m21.4,426.17v15.96c0,.13.05.25.14.34.09.09.21.14.34.14h17.29c.13,0,.25-.05.34-.14.09-.09.14-.21.14-.34v-15.96"/><path class="cls-22" d="m33.88,424.07c0-.43.43-.78.96-.78s.96.35.96.78v3.44c0,.43-.43.78-.96.78s-.96-.35-.96-.78v-3.44h0Zm-2.57,16.44c-.06,0-.1-.24-.1-.53s.04-.53.1-.53h2.62c.06,0,.1.24.1.53s-.04.53-.1.53h-2.62Zm-8.34-6.09c-.06,0-.1-.24-.1-.53s.04-.53.1-.53h2.62c.06,0,.1.24.1.53s-.04.53-.1.53h-2.62Zm4.17,0c-.06,0-.1-.24-.1-.53s.04-.53.1-.53h2.62c.06,0,.1.24.1.53s-.04.53-.1.53h-2.62Zm4.17,0c-.06,0-.1-.24-.1-.53s.04-.53.1-.53h2.62c.06,0,.1.24.1.53s-.04.53-.1.53h-2.62Zm4.17,0c-.06,0-.1-.24-.1-.53s.04-.53.1-.53h2.62c.06,0,.1.24.1.53s-.04.53-.1.53h-2.62Zm-12.51,3.05c-.06,0-.1-.24-.1-.53s.04-.53.1-.53h2.62c.06,0,.1.24.1.53s-.04.53-.1.53h-2.62Zm4.17,0c-.06,0-.1-.24-.1-.53s.04-.53.1-.53h2.62c.06,0,.1.24.1.53s-.04.53-.1.53h-2.62Zm4.17,0c-.06,0-.1-.24-.1-.53s.04-.53.1-.53h2.62c.06,0,.1.24.1.53s-.04.53-.1.53h-2.62Zm4.17,0c-.06,0-.1-.24-.1-.53s.04-.53.1-.53h2.62c.06,0,.1.24.1.53s-.04.53-.1.53h-2.62Zm-12.51,3.05c-.06,0-.1-.24-.1-.53s.04-.53.1-.53h2.62c.06,0,.1.24.1.53s-.04.53-.1.53h-2.62Zm4.17,0c-.06,0-.1-.24-.1-.53s.04-.53.1-.53h2.62c.06,0,.1.24.1.53s-.04.53-.1.53h-2.62Zm-1.89-16.44c0-.43.43-.78.96-.78s.96.35.96.78v3.44c0,.43-.43.78-.96.78s-.96-.35-.96-.78v-3.44h0Zm-3.85,6.73h18.26v-3.96c0-.13-.05-.25-.14-.34-.09-.09-.21-.14-.34-.14h-1.75c-.29,0-.53-.24-.53-.53s.24-.53.53-.53h1.75c.43,0,.81.17,1.09.45.28.28.45.67.45,1.09v15.28c0,.43-.17.81-.45,1.09s-.67.45-1.09.45h-17.29c-.43,0-.81-.17-1.09-.45-.28-.28-.45-.67-.45-1.1v-15.28c0-.43.17-.81.45-1.09.28-.28.67-.45,1.09-.45h1.87c.29,0,.53.24.53.53s-.24.53-.53.53h-1.87c-.13,0-.25.05-.34.14-.09.09-.14.21-.14.34v3.96h0Zm18.26,1.06h-18.26v10.26c0,.13.05.25.14.34.09.09.21.14.34.14h17.29c.13,0,.25-.05.34-.14.09-.09.14-.21.14-.34v-10.26h0Zm-10.96-5.51c-.29,0-.53-.24-.53-.53s.24-.53.53-.53h3.57c.29,0,.53.24.53.53s-.24.53-.53.53h-3.57Z"/><text class="cls-8" transform="translate(106.68 175.89)"><tspan class="cls-21" x="0" y="0">V</tspan><tspan x="7.34" y="0">andaag</tspan></text><text class="cls-10" transform="translate(20.68 203.89)"><tspan class="cls-20" x="0" y="0">T</tspan><tspan x="4.29" y="0">aken</tspan></text><text class="cls-10" transform="translate(20.68 264.89)"><tspan x="0" y="0">Opmerkingen</tspan></text><path class="cls-14" d="m53.08,77.2h145.21c4.24,0,7.68,3.61,7.68,8.07v14.14c0,4.46-3.44,8.07-7.68,8.07H53.08v-30.28Z"/><path class="cls-13" d="m53.08,107.48h-30.93c-4.24,0-7.68-3.61-7.68-8.07v-14.14c0-4.46,3.44-8.07,7.68-8.07h30.93v30.28Z"/><text class="cls-1" transform="translate(20.68 91.89)"><tspan x="0" y="0">26</tspan></text><text class="cls-7" transform="translate(20.68 102.89)"><tspan x="0" y="0">April</tspan></text><path class="cls-14" d="m53.08,117.2h145.21c4.24,0,7.68,3.61,7.68,8.07v14.14c0,4.46-3.44,8.07-7.68,8.07H53.08v-30.28Z"/><path class="cls-13" d="m53.08,147.48h-30.93c-4.24,0-7.68-3.61-7.68-8.07v-14.14c0-4.46,3.44-8.07,7.68-8.07h30.93v30.28Z"/><text class="cls-1" transform="translate(20.68 131.89)"><tspan x="0" y="0">27</tspan></text><text class="cls-7" transform="translate(20.68 142.89)"><tspan x="0" y="0">April</tspan></text><path class="cls-14" d="m53.08,157.2h145.21c4.24,0,7.68,3.61,7.68,8.07v14.14c0,4.46-3.44,8.07-7.68,8.07H53.08v-30.28Z"/><path class="cls-13" d="m53.08,187.48h-30.93c-4.24,0-7.68-3.61-7.68-8.07v-14.14c0-4.46,3.44-8.07,7.68-8.07h30.93v30.28Z"/><text class="cls-1" transform="translate(20.68 171.89)"><tspan x="0" y="0">28</tspan></text><text class="cls-7" transform="translate(20.68 182.89)"><tspan x="0" y="0">April</tspan></text><polygon class="cls-22" points="120.75 99.83 115.4 105.18 110.04 99.83 120.75 99.83"/><polygon class="cls-22" points="120.75 138.83 115.4 144.18 110.04 138.83 120.75 138.83"/><polygon class="cls-22" points="110.04 408.83 115.4 403.47 120.75 408.83 110.04 408.83"/><rect class="cls-4" x="22.57" y="223.33" width="6.44" height="6.44"/><rect class="cls-4" x="22.57" y="213.39" width="6.44" height="6.44"/><text class="cls-11" transform="translate(22.93 219.56)"><tspan x="0" y="0">x</tspan></text><rect class="cls-4" x="22.57" y="233.28" width="6.44" height="6.44"/><text class="cls-11" transform="translate(22.93 239.46)"><tspan x="0" y="0">x</tspan></text><rect class="cls-4" x="22.57" y="243.23" width="6.44" height="6.44"/><text class="cls-11" transform="translate(22.93 249.4)"><tspan x="0" y="0">x</tspan></text><text class="cls-18" transform="translate(33.88 219.39)"><tspan x="0" y="0">Bedjes opmaken</tspan></text><text class="cls-18" transform="translate(33.88 229.39)"><tspan x="0" y="0">Maaltijden maken</tspan></text><text class="cls-18" transform="translate(33.88 239.39)"><tspan x="0" y="0">Luier verschonen Bram</tspan></text><text class="cls-18" transform="translate(33.88 249.39)"><tspan x="0" y="0">Luier verschonen Emilie</tspan></text><rect class="cls-6" x="22.08" y="275.33" width="176" height="120"/><path class="cls-22" d="m197.58,275.83v119H22.58v-119h175m1-1H21.58v121h177v-121h0Z"/><text class="cls-18" transform="translate(26.98 285.31)"><tspan x="0" y="0">Ruimte voor opmerkingen en </tspan></text><text class="cls-18" transform="translate(526.98 285.31)"><tspan x="0" y="0">0612334388</tspan></text><text class="cls-18" transform="translate(527.22 208.23)"><tspan x="0" y="0">Lorem ipsum dolor sit amet, consectetuer </tspan><tspan x="0" y="9.6">adipiscing elit, sed diam nonummy nibh </tspan><tspan x="0" y="19.2">euismod tincidunt ut laoreet dolore magna </tspan></text><path class="cls-22" d="m276.42,449.76c1.29,13.8-1.1,28.38-7.64,40.69-1.48,2.79-3.26,5.44-5.54,7.64s-5.3,3.94-8.37,5.12c-6.75,2.59-14.13,3.56-21.32,3.94-7.03.38-14.09.17-21.13-.12-6.42-.27-12.83-.7-19.21-1.39-12.81-1.37-25.59-3.79-37.77-8.05-6.72-2.35-13.24-5.28-19.38-8.89-3.08-1.81-6.08-3.76-8.92-5.92s-5.41-4.63-6.85-7.94c-.77-1.76-3.36-.24-2.59,1.51,2.66,6.08,8.97,10.05,14.39,13.44s11.46,6.39,17.56,8.81c12.35,4.92,25.42,7.74,38.58,9.43,13.86,1.79,28.05,2.62,42.02,2.23,7.45-.21,14.99-.97,22.16-3.08,6.63-1.95,12.32-5.34,16.39-11.02,4.5-6.29,7.23-14.17,8.96-21.65,1.88-8.1,2.45-16.49,1.68-24.77-.18-1.91-3.18-1.92-3,0h0Z"/><path class="cls-22" d="m114.76,486.55c-.1-2.96-.12-5.93-.02-8.9.05-1.47.04-2.98.22-4.44,0-.13.02-.26.05-.38.06-.2.05-.2-.04-.02.17-.05.46.03.63.05.8.08,1.6.2,2.4.3,5.88.74,11.77,1.48,17.65,2.23.81.1,1.49-.76,1.5-1.5,0-.89-.7-1.4-1.5-1.5-6.72-.85-13.46-1.92-20.21-2.55-3.73-.34-3.53,3.64-3.64,6.26-.15,3.48-.16,6.97-.04,10.45.07,1.93,3.07,1.93,3,0h0Z"/><path class="cls-22" d="m82.39,451.47c1.59,12.79,3.19,25.61,6.03,38.19,1.39,6.15,3.07,12.25,5.22,18.19,2.02,5.59,4.54,11.03,8.39,15.6,7.45,8.84,18.86,13.64,29.43,17.59,11.91,4.45,24.28,7.52,36.72,10.05,25.91,5.29,52.38,9.48,78.89,9.22,23.3-.23,47.83-4.23,67.17-18.09,8.38-6.01,15.69-13.66,20.75-22.69,2.47-4.41,4.41-9.14,5.64-14.04,1.54-6.13,1.91-12.47,2.58-18.74.34-3.19.78-6.36,1.49-9.49.3-1.34-1.48-2.69-2.51-1.46-3.81,4.59-7.62,9.18-11.43,13.77-1.22,1.48.89,3.61,2.12,2.12,3.81-4.59,7.62-9.18,11.43-13.77l-2.51-1.46c-1.38,6.11-1.74,12.36-2.43,18.57-.62,5.6-1.71,11.09-3.79,16.34-3.67,9.29-9.95,17.42-17.44,23.96-17.28,15.1-40.52,20.61-62.93,21.74-25.73,1.3-51.46-2.31-76.69-7.02-12.1-2.26-24.16-4.8-35.94-8.41-6.05-1.86-12.03-3.99-17.83-6.53-5.01-2.19-9.96-4.68-14.36-7.95s-8.07-7.62-10.65-12.61c-2.76-5.33-4.58-11.16-6.21-16.92-3.4-12.07-5.34-24.5-6.97-36.91-.4-3.08-.79-6.17-1.17-9.25-.24-1.89-3.24-1.91-3,0h0Z"/><path class="cls-22" d="m339.87,480c5.23,4.03,9.6,9.12,12.87,14.84.96,1.68,3.55.17,2.59-1.51-3.55-6.19-8.3-11.57-13.95-15.92-.64-.49-1.68-.1-2.05.54-.45.77-.11,1.56.54,2.05h0Z"/><path class="cls-22" d="m350.71,89.91c7.41-17.54,14.98-35.44,26.7-50.62,5.73-7.42,12.48-14.07,20.24-19.37s15.96-9.15,24.71-11.91c17.97-5.67,37.24-6.39,55.72-2.98,19.94,3.68,38.82,11.76,56.19,22.11,8.57,5.11,16.9,10.72,24.7,16.94s14.8,12.86,20.69,20.65c1.44,1.9,2.79,3.86,4.07,5.87,1.03,1.62,3.63.12,2.59-1.51-10.81-16.97-27.1-29.64-43.83-40.39s-36.27-20.21-56.38-25.03c-18.96-4.54-38.83-5.09-57.83-.43-18.42,4.51-35.4,13.96-48.14,28.11-13.11,14.57-21.54,32.54-29.19,50.38-.95,2.22-1.89,4.44-2.83,6.66-.32.75-.22,1.6.54,2.05.63.37,1.74.21,2.05-.54h0Z"/><path class="cls-22" d="m588.43,62.04c1.29,5.82,1.83,11.74,1.67,17.7l1.5-1.5c-13.91-.99-27.66-3.58-40.99-7.67-1.85-.57-2.64,2.33-.8,2.89,13.58,4.17,27.61,6.76,41.79,7.77.83.06,1.48-.74,1.5-1.5.17-6.22-.43-12.42-1.77-18.49-.42-1.88-3.31-1.09-2.89.8h0Z"/></svg>