<?xml version="1.0" encoding="utf-8"?>
<!-- Generator: Adobe Illustrator 27.5.0, SVG Export Plug-In . SVG Version: 6.00 Build 0)  -->
<svg version="1.1" id="Laag_1" xmlns="http://www.w3.org/2000/svg" xmlns:xlink="http://www.w3.org/1999/xlink" x="0px" y="0px"
	 viewBox="0 0 167 237" style="enable-background:new 0 0 167 237;" xml:space="preserve">
<style type="text/css">
	.st0{fill:#264DE4;}
	.st1{fill:#2965F1;}
	.st2{fill:#EBEBEB;}
	.st3{fill:#FFFFFF;}
</style>
<path class="st0" d="M84.6,231.9L25,215.4L11.8,66.5h145.9l-13.3,148.9L84.6,231.9L84.6,231.9z"/>
<path class="st1" d="M133,205.9l11.4-127.2H84.8v140.6L133,205.9L133,205.9z"/>
<path class="st2" d="M42.2,133.9l1.6,18.3h40.9v-18.3H42.2L42.2,133.9z"/>
<path class="st2" d="M38.9,96.9l1.7,18.3h44.1V96.9H38.9L38.9,96.9z"/>
<path class="st2" d="M84.7,181.3L84.7,181.3l-20.4-5.5L63,161.2H44.7l2.6,28.7l37.4,10.4h0.1L84.7,181.3L84.7,181.3z"/>
<path class="st3" d="M127.1,133.9l3.3-37H84.7v18.3h25.7l-1.7,18.7H84.6v18.3h22.5l-2.1,23.7l-20.4,5.5v19L122,190l0.3-3.1l4.3-48.1
	L127.1,133.9L127.1,133.9z"/>
<g>
	<path d="M57.8,35.4l7,2.1c-0.5,2-1.2,3.6-2.2,4.9s-2.3,2.3-3.8,3c-1.5,0.7-3.4,1-5.7,1c-2.8,0-5.1-0.4-6.9-1.2s-3.3-2.2-4.6-4.3
		c-1.3-2.1-1.9-4.7-1.9-7.9c0-4.3,1.1-7.5,3.4-9.8c2.3-2.3,5.5-3.4,9.6-3.4c3.2,0,5.8,0.7,7.7,2c1.9,1.3,3.2,3.3,4.1,6.1l-7,1.6
		c-0.2-0.8-0.5-1.4-0.8-1.7c-0.4-0.6-1-1.1-1.6-1.4c-0.6-0.3-1.4-0.5-2.2-0.5c-1.8,0-3.2,0.7-4.2,2.2C48,29,47.7,30.7,47.7,33
		c0,2.9,0.4,4.8,1.3,5.9c0.9,1.1,2.1,1.6,3.7,1.6c1.5,0,2.7-0.4,3.5-1.3C56.9,38.3,57.4,37.1,57.8,35.4z"/>
	<path d="M67.2,37.5l7.6-0.5c0.2,1.2,0.5,2.2,1,2.8c0.8,1,2,1.6,3.5,1.6c1.1,0,2-0.3,2.6-0.8c0.6-0.5,0.9-1.2,0.9-1.9
		c0-0.7-0.3-1.3-0.9-1.8c-0.6-0.5-1.9-1-4.1-1.5c-3.5-0.8-6-1.8-7.5-3.1c-1.5-1.3-2.3-3-2.3-5c0-1.3,0.4-2.6,1.2-3.8
		c0.8-1.2,1.9-2.1,3.5-2.8s3.7-1,6.3-1c3.3,0,5.8,0.6,7.5,1.8c1.7,1.2,2.8,3.2,3.1,5.9l-7.5,0.4c-0.2-1.2-0.6-2-1.3-2.5
		c-0.6-0.5-1.5-0.8-2.6-0.8c-0.9,0-1.6,0.2-2.1,0.6s-0.7,0.9-0.7,1.4c0,0.4,0.2,0.8,0.6,1.1c0.4,0.3,1.3,0.7,2.7,1
		c3.5,0.8,6,1.5,7.5,2.3c1.5,0.8,2.6,1.7,3.3,2.9c0.7,1.1,1,2.4,1,3.8c0,1.7-0.5,3.2-1.4,4.6c-0.9,1.4-2.2,2.5-3.8,3.2
		c-1.6,0.7-3.7,1.1-6.2,1.1c-4.4,0-7.4-0.8-9.1-2.5S67.5,40.1,67.2,37.5z"/>
	<path d="M93.3,37.5l7.6-0.5c0.2,1.2,0.5,2.2,1,2.8c0.8,1,2,1.6,3.5,1.6c1.1,0,2-0.3,2.6-0.8c0.6-0.5,0.9-1.2,0.9-1.9
		c0-0.7-0.3-1.3-0.9-1.8c-0.6-0.5-1.9-1-4.1-1.5c-3.5-0.8-6-1.8-7.5-3.1c-1.5-1.3-2.3-3-2.3-5c0-1.3,0.4-2.6,1.2-3.8
		c0.8-1.2,1.9-2.1,3.5-2.8c1.5-0.7,3.7-1,6.3-1c3.3,0,5.8,0.6,7.5,1.8c1.7,1.2,2.8,3.2,3.1,5.9l-7.5,0.4c-0.2-1.2-0.6-2-1.3-2.5
		c-0.6-0.5-1.5-0.8-2.6-0.8c-0.9,0-1.6,0.2-2.1,0.6c-0.5,0.4-0.7,0.9-0.7,1.4c0,0.4,0.2,0.8,0.6,1.1c0.4,0.3,1.3,0.7,2.7,1
		c3.5,0.8,6,1.5,7.5,2.3s2.6,1.7,3.3,2.9c0.7,1.1,1,2.4,1,3.8c0,1.7-0.5,3.2-1.4,4.6c-0.9,1.4-2.2,2.5-3.8,3.2s-3.7,1.1-6.2,1.1
		c-4.4,0-7.4-0.8-9.1-2.5S93.5,40.1,93.3,37.5z"/>
</g>
</svg>
