<?xml version="1.0" encoding="utf-8"?>
<!-- Generator: Adobe Illustrator 27.5.0, SVG Export Plug-In . SVG Version: 6.00 Build 0)  -->
<svg version="1.1" id="Laag_1" xmlns="http://www.w3.org/2000/svg" xmlns:xlink="http://www.w3.org/1999/xlink" x="0px" y="0px"
	 viewBox="0 0 167 237" style="enable-background:new 0 0 167 237;" xml:space="preserve">
<style type="text/css">
	.st0{fill:#E44D26;}
	.st1{fill:#F16529;}
	.st2{fill:#EBEBEB;}
	.st3{fill:#FFFFFF;}
</style>
<g>
	<path d="M26.6,20.2h8v9h8.7v-9h8V46h-8V35.6h-8.7V46h-8V20.2z"/>
	<path d="M54.8,20.2H79v6.4h-8.1V46h-8V26.6h-8.1V20.2z"/>
	<path d="M82.5,20.2H93l4,15.7l4-15.7h10.5V46H105V26.3L100,46h-5.9l-5-19.7V46h-6.5V20.2z"/>
	<path d="M116.6,20.2h8v19.4h12.4V46h-20.4V20.2z"/>
</g>
<g>
	<path class="st0" d="M154.9,64.5l-13.2,147.4l-59.1,16.4l-59-16.4L10.5,64.5H154.9L154.9,64.5z"/>
	<path class="st1" d="M82.7,215.8l47.8-13.2l11.2-125.9h-59V215.8L82.7,215.8z"/>
	<path class="st2" d="M57.2,112.7h25.6V94.6H37.4l0.4,4.9l4.4,49.8h40.5v-18.1H58.8L57.2,112.7L57.2,112.7z"/>
	<path class="st2" d="M61.2,158.4H43.1l2.5,28.4l37,10.3h0.1v-18.8h-0.1l-20.1-5.4L61.2,158.4L61.2,158.4z"/>
	<path class="st3" d="M82.7,149.3H105l-2.1,23.4l-20.2,5.4V197l37.1-10.3l0.3-3.1l4.2-47.6l0.4-4.9h-42L82.7,149.3L82.7,149.3z"/>
	<path class="st3" d="M82.7,112.7L82.7,112.7h43.7l0.4-4.1l0.8-9.2l0.4-4.9H82.7L82.7,112.7L82.7,112.7z"/>
</g>
</svg>
