<?xml version="1.0" encoding="UTF-8"?><svg id="Laag_1" xmlns="http://www.w3.org/2000/svg" viewBox="0 0 1059 571.95"><defs><style>.cls-1{font-family:ArialMT, Arial;}.cls-2,.cls-3,.cls-4,.cls-5{stroke:#000;stroke-miterlimit:10;}.cls-2,.cls-4{stroke-width:.28px;}.cls-6{fill:#515151;font-size:5.77px;}.cls-7{font-size:11.53px;}.cls-7,.cls-8{font-family:Arial-BoldMT, Arial;font-weight:700;}.cls-8{font-size:13.84px;}.cls-9{letter-spacing:-.06em;}.cls-10{letter-spacing:-.06em;}.cls-11{font-family:Arial-ItalicMT, Arial;font-style:italic;}.cls-12{letter-spacing:0em;}.cls-3{fill:none;}.cls-4,.cls-5,.cls-13{fill:#fff;}.cls-14,.cls-15,.cls-13{stroke-width:0px;}.cls-5{stroke-width:1.42px;}.cls-15{fill:#dbdbdb;}</style></defs><path class="cls-3" d="m26.15,157.7c-4.24,0-7.68-3.61-7.68-8.07v-45.14c0-4.46,3.44-8.07,7.68-8.07h74.14c4.24,0,7.68,3.61,7.68,8.07v45.14c0,4.46-3.44,8.07-7.68,8.07H26.15Z"/><text class="cls-8" transform="translate(43 131.33)"><tspan x="0" y="0">Films</tspan></text><path class="cls-3" d="m127.66,157.7c-4.24,0-7.68-3.61-7.68-8.07v-45.14c0-4.46,3.44-8.07,7.68-8.07h74.14c4.24,0,7.68,3.61,7.68,8.07v45.14c0,4.46-3.44,8.07-7.68,8.07h-74.14Z"/><text class="cls-8" transform="translate(131.82 131.33)"><tspan x="0" y="0">TV Shows</tspan></text><path class="cls-3" d="m229.16,157.7c-4.24,0-7.68-3.61-7.68-8.07v-45.14c0-4.46,3.44-8.07,7.68-8.07h74.14c4.24,0,7.68,3.61,7.68,8.07v45.14c0,4.46-3.44,8.07-7.68,8.07h-74.14Z"/><text class="cls-8" transform="translate(246.01 131.33)"><tspan x="0" y="0">Latest</tspan></text><text class="cls-7" transform="translate(18.4 178.65)"><tspan x="0" y="0">Drama</tspan></text><path class="cls-3" d="m26.15,251.17c-4.24,0-7.68-3.61-7.68-8.07v-45.14c0-4.46,3.44-8.07,7.68-8.07h74.14c4.24,0,7.68,3.61,7.68,8.07v45.14c0,4.46-3.44,8.07-7.68,8.07H26.15Z"/><path class="cls-15" d="m28.72,248.1c-3.82,0-6.91-3.25-6.91-7.26v-40.61c0-4.01,3.09-7.26,6.91-7.26h69c3.82,0,6.91,3.25,6.91,7.26v40.61c0,4.01-3.09,7.26-6.91,7.26H28.72Z"/><path class="cls-3" d="m127.66,251.17c-4.24,0-7.68-3.61-7.68-8.07v-45.14c0-4.46,3.44-8.07,7.68-8.07h74.14c4.24,0,7.68,3.61,7.68,8.07v45.14c0,4.46-3.44,8.07-7.68,8.07h-74.14Z"/><path class="cls-15" d="m130.22,248.1c-3.82,0-6.91-3.25-6.91-7.26v-40.61c0-4.01,3.09-7.26,6.91-7.26h69c3.82,0,6.91,3.25,6.91,7.26v40.61c0,4.01-3.09,7.26-6.91,7.26h-69Z"/><path class="cls-3" d="m229.16,251.17c-4.24,0-7.68-3.61-7.68-8.07v-45.14c0-4.46,3.44-8.07,7.68-8.07h74.14c4.24,0,7.68,3.61,7.68,8.07v45.14c0,4.46-3.44,8.07-7.68,8.07h-74.14Z"/><path class="cls-15" d="m231.73,248.1c-3.82,0-6.91-3.25-6.91-7.26v-40.61c0-4.01,3.09-7.26,6.91-7.26h69c3.82,0,6.91,3.25,6.91,7.26v40.61c0,4.01-3.09,7.26-6.91,7.26h-69Z"/><text class="cls-6" transform="translate(20.89 261.12)"><tspan class="cls-1"><tspan x="0" y="0">Conversations with my Gardener</tspan></tspan><tspan class="cls-11"><tspan x="0" y="6.92">2007</tspan></tspan></text><text class="cls-6" transform="translate(123.55 261.12)"><tspan class="cls-1"><tspan x="0" y="0">Argo</tspan></tspan><tspan class="cls-11"><tspan x="0" y="6.92">2021</tspan></tspan></text><text class="cls-6" transform="translate(225.05 261.12)"><tspan class="cls-1"><tspan x="0" y="0">About Schmidt</tspan></tspan><tspan class="cls-11"><tspan x="0" y="6.92">2002</tspan></tspan></text><text class="cls-7" transform="translate(18.4 285.7)"><tspan x="0" y="0">Horror</tspan></text><path class="cls-3" d="m26.15,358.21c-4.24,0-7.68-3.61-7.68-8.07v-45.14c0-4.46,3.44-8.07,7.68-8.07h74.14c4.24,0,7.68,3.61,7.68,8.07v45.14c0,4.46-3.44,8.07-7.68,8.07H26.15Z"/><path class="cls-15" d="m28.72,355.14c-3.82,0-6.91-3.25-6.91-7.26v-40.61c0-4.01,3.09-7.26,6.91-7.26h69c3.82,0,6.91,3.25,6.91,7.26v40.61c0,4.01-3.09,7.26-6.91,7.26H28.72Z"/><path class="cls-3" d="m127.66,358.21c-4.24,0-7.68-3.61-7.68-8.07v-45.14c0-4.46,3.44-8.07,7.68-8.07h74.14c4.24,0,7.68,3.61,7.68,8.07v45.14c0,4.46-3.44,8.07-7.68,8.07h-74.14Z"/><path class="cls-15" d="m130.22,355.14c-3.82,0-6.91-3.25-6.91-7.26v-40.61c0-4.01,3.09-7.26,6.91-7.26h69c3.82,0,6.91,3.25,6.91,7.26v40.61c0,4.01-3.09,7.26-6.91,7.26h-69Z"/><path class="cls-3" d="m229.16,358.21c-4.24,0-7.68-3.61-7.68-8.07v-45.14c0-4.46,3.44-8.07,7.68-8.07h74.14c4.24,0,7.68,3.61,7.68,8.07v45.14c0,4.46-3.44,8.07-7.68,8.07h-74.14Z"/><path class="cls-15" d="m231.73,355.14c-3.82,0-6.91-3.25-6.91-7.26v-40.61c0-4.01,3.09-7.26,6.91-7.26h69c3.82,0,6.91,3.25,6.91,7.26v40.61c0,4.01-3.09,7.26-6.91,7.26h-69Z"/><text class="cls-6" transform="translate(20.89 365.85)"><tspan class="cls-1"><tspan x="0" y="0">The Birds</tspan></tspan><tspan class="cls-11"><tspan x="0" y="6.92">1967</tspan></tspan></text><text class="cls-6" transform="translate(123.55 365.85)"><tspan class="cls-1"><tspan x="0" y="0">Devils</tspan><tspan class="cls-9" x="15.7" y="0"> </tspan><tspan x="16.99" y="0">Advocate</tspan></tspan><tspan class="cls-11"><tspan x="0" y="6.92">2002</tspan></tspan></text><text class="cls-6" transform="translate(225.05 365.85)"><tspan class="cls-1"><tspan x="0" y="0">Run Rabbit Run</tspan></tspan><tspan class="cls-11"><tspan x="0" y="6.92">2021</tspan></tspan></text><text class="cls-7" transform="translate(18.4 395.77)"><tspan x="0" y="0">Detective</tspan></text><path class="cls-3" d="m26.15,468.29c-4.24,0-7.68-3.61-7.68-8.07v-45.14c0-4.46,3.44-8.07,7.68-8.07h74.14c4.24,0,7.68,3.61,7.68,8.07v45.14c0,4.46-3.44,8.07-7.68,8.07H26.15Z"/><path class="cls-15" d="m28.72,465.21c-3.82,0-6.91-3.25-6.91-7.26v-40.61c0-4.01,3.09-7.26,6.91-7.26h69c3.82,0,6.91,3.25,6.91,7.26v40.61c0,4.01-3.09,7.26-6.91,7.26H28.72Z"/><path class="cls-3" d="m127.66,468.29c-4.24,0-7.68-3.61-7.68-8.07v-45.14c0-4.46,3.44-8.07,7.68-8.07h74.14c4.24,0,7.68,3.61,7.68,8.07v45.14c0,4.46-3.44,8.07-7.68,8.07h-74.14Z"/><path class="cls-15" d="m130.22,465.21c-3.82,0-6.91-3.25-6.91-7.26v-40.61c0-4.01,3.09-7.26,6.91-7.26h69c3.82,0,6.91,3.25,6.91,7.26v40.61c0,4.01-3.09,7.26-6.91,7.26h-69Z"/><path class="cls-3" d="m229.16,468.29c-4.24,0-7.68-3.61-7.68-8.07v-45.14c0-4.46,3.44-8.07,7.68-8.07h74.14c4.24,0,7.68,3.61,7.68,8.07v45.14c0,4.46-3.44,8.07-7.68,8.07h-74.14Z"/><path class="cls-15" d="m231.73,465.21c-3.82,0-6.91-3.25-6.91-7.26v-40.61c0-4.01,3.09-7.26,6.91-7.26h69c3.82,0,6.91,3.25,6.91,7.26v40.61c0,4.01-3.09,7.26-6.91,7.26h-69Z"/><text class="cls-6" transform="translate(20.89 477.08)"><tspan class="cls-1"><tspan x="0" y="0">Murder she wrote</tspan></tspan><tspan class="cls-11"><tspan x="0" y="6.92">2004</tspan></tspan></text><text class="cls-6" transform="translate(123.55 477.08)"><tspan class="cls-1"><tspan class="cls-10" x="0" y="0">A</tspan><tspan class="cls-12" x="3.53" y="0" xml:space="preserve"> touch of frost</tspan></tspan><tspan class="cls-11"><tspan x="0" y="6.92">1989</tspan></tspan></text><text class="cls-6" transform="translate(225.05 477.08)"><tspan class="cls-1"><tspan x="0" y="0">Midsomer Murders</tspan></tspan><tspan class="cls-11"><tspan x="0" y="6.92">2003</tspan></tspan></text><path class="cls-3" d="m17,51.45h295c11,0,16.5,5.5,16.5,16.5v487c0,11-5.5,16.5-16.5,16.5H17c-11,0-16.5-5.5-16.5-16.5V67.95c0-11,5.5-16.5,16.5-16.5Z"/><path class="cls-3" d="m7.1,84.45h314.8v454H7.1V84.45Z"/><rect class="cls-15" x="7.47" y="507.78" width="314" height="30"/><rect class="cls-15" x="7.47" y="507.78" width="314" height="30"/><path class="cls-5" d="m19.79,529c-.85,0-1.54-.72-1.54-1.61v-9.02c0-.89.69-1.61,1.54-1.61h14.82c.85,0,1.54.72,1.54,1.61v9.02c0,.89-.69,1.61-1.54,1.61h-14.82Z"/><polygon class="cls-14" points="24.96 520.66 29.17 522.77 24.96 524.89 24.96 520.66"/><path class="cls-14" d="m25.67,521.81l1.93.96-1.93.96v-1.93m-1.42-2.3v6.52l6.51-3.26-6.51-3.26h0Z"/><polygon class="cls-14" points="209.01 526.42 210.49 524.95 214.7 529.34 213.31 530.72 209.01 526.42"/><path class="cls-14" d="m210.49,525.12l4.04,4.21-1.21,1.21-4.12-4.12,1.3-1.3m0-.36l-1.66,1.66,4.48,4.48,1.56-1.56-4.38-4.57h0Z"/><path class="cls-13" d="m205.94,528.19c-1.69,0-3.27-.66-4.47-1.85s-1.85-2.78-1.85-4.47.66-3.27,1.85-4.47,2.78-1.85,4.47-1.85,3.27.66,4.47,1.85,1.85,2.78,1.85,4.47-.66,3.27-1.85,4.47-2.78,1.85-4.47,1.85Z"/><path class="cls-14" d="m205.94,516.26c1.5,0,2.91.58,3.97,1.64,1.06,1.06,1.64,2.47,1.64,3.96s-.58,2.91-1.64,3.97c-1.06,1.06-2.47,1.64-3.97,1.64s-2.91-.58-3.97-1.64-1.64-2.47-1.64-3.97.58-2.91,1.64-3.96,2.47-1.64,3.97-1.64m0-1.42c-1.8,0-3.6.69-4.97,2.06-2.74,2.74-2.74,7.19,0,9.93,1.37,1.37,3.17,2.06,4.97,2.06s3.6-.69,4.97-2.06c2.74-2.74,2.74-7.19,0-9.93-1.37-1.37-3.17-2.06-4.97-2.06h0Z"/><polygon class="cls-13" points="114.5 528.02 109.56 530.62 110.51 525.12 106.51 521.23 112.03 520.43 114.5 515.43 116.96 520.43 122.48 521.23 118.49 525.12 119.43 530.62 114.5 528.02"/><path class="cls-14" d="m114.5,517.04l1.67,3.38.33.67.74.11,3.73.54-2.7,2.63-.53.52.13.73.64,3.71-3.33-1.75-.66-.35-.66.35-3.33,1.75.64-3.71.13-.73-.53-.52-2.7-2.63,3.73-.54.74-.11.33-.67,1.67-3.38m0-3.2l-2.94,5.95-6.57.95,4.75,4.63-1.12,6.54,5.87-3.09,5.87,3.09-1.12-6.54,4.75-4.63-6.57-.95-2.94-5.95h0Z"/><path class="cls-2" d="m302.14,521.09h-1.64c-.26,0-.48-.15-.58-.39s-.05-.5.14-.69l1.16-1.16c.17-.17.26-.4.26-.64s-.09-.47-.26-.64l-1.48-1.48c-.34-.34-.94-.34-1.28,0l-1.16,1.16c-.19.19-.44.24-.69.14-.24-.1-.39-.32-.39-.58v-1.64c0-.5-.41-.9-.9-.9h-2.09c-.5,0-.9.41-.9.9v1.64c0,.26-.15.48-.39.58-.24.1-.5.05-.69-.14l-1.16-1.16c-.34-.34-.94-.34-1.28,0l-1.48,1.48c-.17.17-.26.4-.26.64s.09.47.26.64l1.16,1.16c.19.19.24.44.14.69s-.32.39-.58.39h-1.64c-.5,0-.9.41-.9.9v2.09c0,.5.41.9.9.9h1.64c.26,0,.48.15.58.39s.05.5-.14.69l-1.16,1.16c-.17.17-.26.4-.26.64s.09.47.26.64l1.48,1.48c.34.34.94.34,1.28,0l1.16-1.16c.19-.19.44-.24.69-.14.24.1.39.32.39.58v1.64c0,.5.41.9.9.9h2.09c.5,0,.9-.41.9-.9v-1.64c0-.26.15-.48.39-.58.24-.1.5-.05.69.14l1.16,1.16c.34.34.94.34,1.28,0l1.48-1.48c.17-.17.26-.4.26-.64s-.09-.47-.26-.64l-1.16-1.16c-.19-.19-.24-.44-.14-.69s.32-.39.58-.39h1.64c.5,0,.9-.41.9-.9v-2.09c0-.5-.41-.9-.9-.9Z"/><path class="cls-4" d="m302.39,524.09c0,.14-.11.25-.25.25h-1.64c-.53,0-.98.3-1.18.79-.2.49-.1,1.02.28,1.4l1.16,1.16c.1.1.1.26,0,.36l-1.48,1.48c-.1.1-.26.1-.36,0l-1.16-1.16c-.37-.37-.91-.48-1.4-.28-.49.2-.79.66-.79,1.18v1.64c0,.14-.11.25-.25.25h-2.09c-.14,0-.25-.11-.25-.25v-1.64c0-.53-.3-.98-.79-1.18-.16-.07-.33-.1-.5-.1-.33,0-.65.13-.9.38l-1.16,1.16c-.1.1-.26.1-.36,0l-1.48-1.48c-.1-.1-.1-.26,0-.36l1.16-1.16c.37-.37.48-.91.28-1.4-.2-.49-.66-.79-1.18-.79h-1.64c-.14,0-.25-.11-.25-.25v-2.09c0-.14.11-.25.25-.25h1.64c.53,0,.98-.3,1.18-.79.2-.49.1-1.02-.28-1.4l-1.16-1.16c-.1-.1-.1-.26,0-.36l1.48-1.48c.1-.1.26-.1.36,0l1.16,1.16c.37.37.91.48,1.4.28.49-.2.79-.66.79-1.18v-1.64c0-.14.11-.25.25-.25h2.09c.14,0,.25.11.25.25v1.64c0,.53.3.98.79,1.18.49.2,1.02.1,1.4-.28l1.16-1.16c.1-.1.26-.1.36,0l1.48,1.48c.1.1.1.26,0,.36l-1.16,1.16c-.37.37-.48.91-.28,1.4.2.49.66.79,1.18.79h1.64c.14,0,.25.11.25.25v2.09Z"/><path class="cls-2" d="m294.27,520.12c-1.61,0-2.93,1.31-2.93,2.93s1.31,2.93,2.93,2.93,2.93-1.31,2.93-2.93-1.31-2.93-2.93-2.93Zm0,5.2c-1.25,0-2.28-1.02-2.28-2.28s1.02-2.28,2.28-2.28,2.28,1.02,2.28,2.28-1.02,2.28-2.28,2.28Z"/><text class="cls-8" transform="translate(383.89 112.33)"><tspan x="0" y="0">Latest additions....</tspan></text><text class="cls-8" transform="translate(753.89 112.33)"><tspan x="0" y="0">Search</tspan></text><path class="cls-3" d="m391.15,190.17c-4.24,0-7.68-3.61-7.68-8.07v-45.14c0-4.46,3.44-8.07,7.68-8.07h74.14c4.24,0,7.68,3.61,7.68,8.07v45.14c0,4.46-3.44,8.07-7.68,8.07h-74.14Z"/><path class="cls-15" d="m393.72,187.1c-3.82,0-6.91-3.25-6.91-7.26v-40.61c0-4.01,3.09-7.26,6.91-7.26h69c3.82,0,6.91,3.25,6.91,7.26v40.61c0,4.01-3.09,7.26-6.91,7.26h-69Z"/><path class="cls-3" d="m492.66,190.17c-4.24,0-7.68-3.61-7.68-8.07v-45.14c0-4.46,3.44-8.07,7.68-8.07h74.14c4.24,0,7.68,3.61,7.68,8.07v45.14c0,4.46-3.44,8.07-7.68,8.07h-74.14Z"/><path class="cls-15" d="m495.22,187.1c-3.82,0-6.91-3.25-6.91-7.26v-40.61c0-4.01,3.09-7.26,6.91-7.26h69c3.82,0,6.91,3.25,6.91,7.26v40.61c0,4.01-3.09,7.26-6.91,7.26h-69Z"/><path class="cls-3" d="m594.16,190.17c-4.24,0-7.68-3.61-7.68-8.07v-45.14c0-4.46,3.44-8.07,7.68-8.07h74.14c4.24,0,7.68,3.61,7.68,8.07v45.14c0,4.46-3.44,8.07-7.68,8.07h-74.14Z"/><path class="cls-15" d="m596.73,187.1c-3.82,0-6.91-3.25-6.91-7.26v-40.61c0-4.01,3.09-7.26,6.91-7.26h69c3.82,0,6.91,3.25,6.91,7.26v40.61c0,4.01-3.09,7.26-6.91,7.26h-69Z"/><text class="cls-6" transform="translate(385.89 200.12)"><tspan class="cls-1"><tspan x="0" y="0">Conversations with my Gardener</tspan></tspan><tspan class="cls-11"><tspan x="0" y="6.92">2007</tspan></tspan></text><text class="cls-6" transform="translate(488.55 200.12)"><tspan class="cls-1"><tspan x="0" y="0">Argo</tspan></tspan><tspan class="cls-11"><tspan x="0" y="6.92">2021</tspan></tspan></text><text class="cls-6" transform="translate(590.05 200.12)"><tspan class="cls-1"><tspan x="0" y="0">About Schmidt</tspan></tspan><tspan class="cls-11"><tspan x="0" y="6.92">2002</tspan></tspan></text><path class="cls-3" d="m391.15,278.21c-4.24,0-7.68-3.61-7.68-8.07v-45.14c0-4.46,3.44-8.07,7.68-8.07h74.14c4.24,0,7.68,3.61,7.68,8.07v45.14c0,4.46-3.44,8.07-7.68,8.07h-74.14Z"/><path class="cls-15" d="m393.72,275.14c-3.82,0-6.91-3.25-6.91-7.26v-40.61c0-4.01,3.09-7.26,6.91-7.26h69c3.82,0,6.91,3.25,6.91,7.26v40.61c0,4.01-3.09,7.26-6.91,7.26h-69Z"/><path class="cls-3" d="m492.66,278.21c-4.24,0-7.68-3.61-7.68-8.07v-45.14c0-4.46,3.44-8.07,7.68-8.07h74.14c4.24,0,7.68,3.61,7.68,8.07v45.14c0,4.46-3.44,8.07-7.68,8.07h-74.14Z"/><path class="cls-15" d="m495.22,275.14c-3.82,0-6.91-3.25-6.91-7.26v-40.61c0-4.01,3.09-7.26,6.91-7.26h69c3.82,0,6.91,3.25,6.91,7.26v40.61c0,4.01-3.09,7.26-6.91,7.26h-69Z"/><path class="cls-3" d="m594.16,278.21c-4.24,0-7.68-3.61-7.68-8.07v-45.14c0-4.46,3.44-8.07,7.68-8.07h74.14c4.24,0,7.68,3.61,7.68,8.07v45.14c0,4.46-3.44,8.07-7.68,8.07h-74.14Z"/><path class="cls-15" d="m596.73,275.14c-3.82,0-6.91-3.25-6.91-7.26v-40.61c0-4.01,3.09-7.26,6.91-7.26h69c3.82,0,6.91,3.25,6.91,7.26v40.61c0,4.01-3.09,7.26-6.91,7.26h-69Z"/><text class="cls-6" transform="translate(385.89 285.85)"><tspan class="cls-1"><tspan x="0" y="0">The Birds</tspan></tspan><tspan class="cls-11"><tspan x="0" y="6.92">1967</tspan></tspan></text><text class="cls-6" transform="translate(488.55 285.85)"><tspan class="cls-1"><tspan x="0" y="0">Devils</tspan><tspan class="cls-9" x="15.7" y="0"> </tspan><tspan x="16.99" y="0">Advocate</tspan></tspan><tspan class="cls-11"><tspan x="0" y="6.92">2002</tspan></tspan></text><text class="cls-6" transform="translate(590.05 285.85)"><tspan class="cls-1"><tspan x="0" y="0">Run Rabbit Run</tspan></tspan><tspan class="cls-11"><tspan x="0" y="6.92">2021</tspan></tspan></text><path class="cls-3" d="m391.15,361.29c-4.24,0-7.68-3.61-7.68-8.07v-45.14c0-4.46,3.44-8.07,7.68-8.07h74.14c4.24,0,7.68,3.61,7.68,8.07v45.14c0,4.46-3.44,8.07-7.68,8.07h-74.14Z"/><path class="cls-15" d="m393.72,358.21c-3.82,0-6.91-3.25-6.91-7.26v-40.61c0-4.01,3.09-7.26,6.91-7.26h69c3.82,0,6.91,3.25,6.91,7.26v40.61c0,4.01-3.09,7.26-6.91,7.26h-69Z"/><path class="cls-3" d="m492.66,361.29c-4.24,0-7.68-3.61-7.68-8.07v-45.14c0-4.46,3.44-8.07,7.68-8.07h74.14c4.24,0,7.68,3.61,7.68,8.07v45.14c0,4.46-3.44,8.07-7.68,8.07h-74.14Z"/><path class="cls-15" d="m495.22,358.21c-3.82,0-6.91-3.25-6.91-7.26v-40.61c0-4.01,3.09-7.26,6.91-7.26h69c3.82,0,6.91,3.25,6.91,7.26v40.61c0,4.01-3.09,7.26-6.91,7.26h-69Z"/><path class="cls-3" d="m594.16,361.29c-4.24,0-7.68-3.61-7.68-8.07v-45.14c0-4.46,3.44-8.07,7.68-8.07h74.14c4.24,0,7.68,3.61,7.68,8.07v45.14c0,4.46-3.44,8.07-7.68,8.07h-74.14Z"/><path class="cls-15" d="m596.73,358.21c-3.82,0-6.91-3.25-6.91-7.26v-40.61c0-4.01,3.09-7.26,6.91-7.26h69c3.82,0,6.91,3.25,6.91,7.26v40.61c0,4.01-3.09,7.26-6.91,7.26h-69Z"/><text class="cls-6" transform="translate(385.89 370.08)"><tspan class="cls-1"><tspan x="0" y="0">Murder she wrote</tspan></tspan><tspan class="cls-11"><tspan x="0" y="6.92">2004</tspan></tspan></text><text class="cls-6" transform="translate(488.55 370.08)"><tspan class="cls-1"><tspan class="cls-10" x="0" y="0">A</tspan><tspan class="cls-12" x="3.53" y="0" xml:space="preserve"> touch of frost</tspan></tspan><tspan class="cls-11"><tspan x="0" y="6.92">1989</tspan></tspan></text><text class="cls-6" transform="translate(590.05 370.08)"><tspan class="cls-1"><tspan x="0" y="0">Midsomer Murders</tspan></tspan><tspan class="cls-11"><tspan x="0" y="6.92">2003</tspan></tspan></text><path class="cls-3" d="m382,51.45h295c11,0,16.5,5.5,16.5,16.5v487c0,11-5.5,16.5-16.5,16.5h-295c-11,0-16.5-5.5-16.5-16.5V67.95c0-11,5.5-16.5,16.5-16.5Z"/><path class="cls-3" d="m372.1,84.45h314.8v454h-314.8V84.45Z"/><rect class="cls-15" x="372.47" y="507.78" width="314" height="30"/><rect class="cls-15" x="372.47" y="507.78" width="314" height="30"/><path class="cls-5" d="m384.79,529c-.85,0-1.54-.72-1.54-1.61v-9.02c0-.89.69-1.61,1.54-1.61h14.82c.85,0,1.54.72,1.54,1.61v9.02c0,.89-.69,1.61-1.54,1.61h-14.82Z"/><polygon class="cls-14" points="389.96 520.66 394.17 522.77 389.96 524.89 389.96 520.66"/><path class="cls-14" d="m390.67,521.81l1.93.96-1.93.96v-1.93m-1.42-2.3v6.52l6.51-3.26-6.51-3.26h0Z"/><polygon class="cls-14" points="574.01 526.42 575.49 524.95 579.7 529.34 578.31 530.72 574.01 526.42"/><path class="cls-14" d="m575.49,525.12l4.04,4.21-1.21,1.21-4.12-4.12,1.3-1.3m0-.36l-1.66,1.66,4.48,4.48,1.56-1.56-4.38-4.57h0Z"/><path class="cls-13" d="m570.94,528.19c-1.69,0-3.27-.66-4.47-1.85-2.46-2.46-2.46-6.47,0-8.93,1.19-1.19,2.78-1.85,4.47-1.85s3.27.66,4.47,1.85c2.46,2.46,2.46,6.47,0,8.93-1.19,1.19-2.78,1.85-4.47,1.85Z"/><path class="cls-14" d="m570.94,516.26c1.5,0,2.91.58,3.96,1.64,1.06,1.06,1.64,2.47,1.64,3.96s-.58,2.91-1.64,3.97-2.47,1.64-3.96,1.64-2.91-.58-3.97-1.64-1.64-2.47-1.64-3.97.58-2.91,1.64-3.96,2.47-1.64,3.97-1.64m0-1.42c-1.8,0-3.6.69-4.97,2.06-2.74,2.74-2.74,7.19,0,9.93,1.37,1.37,3.17,2.06,4.97,2.06s3.6-.69,4.97-2.06c2.74-2.74,2.74-7.19,0-9.93-1.37-1.37-3.17-2.06-4.97-2.06h0Z"/><polygon class="cls-13" points="479.5 528.02 474.56 530.62 475.51 525.12 471.51 521.23 477.03 520.43 479.5 515.43 481.96 520.43 487.48 521.23 483.49 525.12 484.43 530.62 479.5 528.02"/><path class="cls-14" d="m479.5,517.04l1.67,3.38.33.67.74.11,3.73.54-2.7,2.63-.53.52.13.73.64,3.71-3.33-1.75-.66-.35-.66.35-3.33,1.75.64-3.71.13-.73-.53-.52-2.7-2.63,3.73-.54.74-.11.33-.67,1.67-3.38m0-3.2l-2.94,5.95-6.57.95,4.75,4.63-1.12,6.54,5.87-3.09,5.87,3.09-1.12-6.54,4.75-4.63-6.57-.95-2.94-5.95h0Z"/><path class="cls-2" d="m667.14,521.09h-1.64c-.26,0-.48-.15-.58-.39s-.05-.5.14-.69l1.16-1.16c.17-.17.26-.4.26-.64s-.09-.47-.26-.64l-1.48-1.48c-.34-.34-.94-.34-1.28,0l-1.16,1.16c-.19.19-.44.24-.69.14-.24-.1-.39-.32-.39-.58v-1.64c0-.5-.41-.9-.9-.9h-2.09c-.5,0-.9.41-.9.9v1.64c0,.26-.15.48-.39.58-.24.1-.5.05-.69-.14l-1.16-1.16c-.34-.34-.94-.34-1.28,0l-1.48,1.48c-.17.17-.26.4-.26.64s.09.47.26.64l1.16,1.16c.19.19.24.44.14.69s-.32.39-.58.39h-1.64c-.5,0-.9.41-.9.9v2.09c0,.5.41.9.9.9h1.64c.26,0,.48.15.58.39s.05.5-.14.69l-1.16,1.16c-.17.17-.26.4-.26.64s.09.47.26.64l1.48,1.48c.34.34.94.34,1.28,0l1.16-1.16c.19-.19.44-.24.69-.14.24.1.39.32.39.58v1.64c0,.5.41.9.9.9h2.09c.5,0,.9-.41.9-.9v-1.64c0-.26.15-.48.39-.58.24-.1.5-.05.69.14l1.16,1.16c.34.34.94.34,1.28,0l1.48-1.48c.17-.17.26-.4.26-.64s-.09-.47-.26-.64l-1.16-1.16c-.19-.19-.24-.44-.14-.69s.32-.39.58-.39h1.64c.5,0,.9-.41.9-.9v-2.09c0-.5-.41-.9-.9-.9Z"/><path class="cls-4" d="m667.39,524.09c0,.14-.11.25-.25.25h-1.64c-.53,0-.98.3-1.18.79-.2.49-.1,1.02.28,1.4l1.16,1.16c.1.1.1.26,0,.36l-1.48,1.48c-.1.1-.26.1-.36,0l-1.16-1.16c-.37-.37-.91-.48-1.4-.28-.49.2-.79.66-.79,1.18v1.64c0,.14-.11.25-.25.25h-2.09c-.14,0-.25-.11-.25-.25v-1.64c0-.53-.3-.98-.79-1.18-.16-.07-.33-.1-.5-.1-.33,0-.65.13-.9.38l-1.16,1.16c-.1.1-.26.1-.36,0l-1.48-1.48c-.1-.1-.1-.26,0-.36l1.16-1.16c.37-.37.48-.91.28-1.4-.2-.49-.66-.79-1.18-.79h-1.64c-.14,0-.25-.11-.25-.25v-2.09c0-.14.11-.25.25-.25h1.64c.53,0,.98-.3,1.18-.79.2-.49.1-1.02-.28-1.4l-1.16-1.16c-.1-.1-.1-.26,0-.36l1.48-1.48c.1-.1.26-.1.36,0l1.16,1.16c.37.37.91.48,1.4.28.49-.2.79-.66.79-1.18v-1.64c0-.14.11-.25.25-.25h2.09c.14,0,.25.11.25.25v1.64c0,.53.3.98.79,1.18.49.2,1.02.1,1.4-.28l1.16-1.16c.1-.1.26-.1.36,0l1.48,1.48c.1.1.1.26,0,.36l-1.16,1.16c-.37.37-.48.91-.28,1.4.2.49.66.79,1.18.79h1.64c.14,0,.25.11.25.25v2.09Z"/><path class="cls-2" d="m659.27,520.12c-1.61,0-2.93,1.31-2.93,2.93s1.31,2.93,2.93,2.93,2.93-1.31,2.93-2.93-1.31-2.93-2.93-2.93Zm0,5.2c-1.25,0-2.28-1.02-2.28-2.28s1.02-2.28,2.28-2.28,2.28,1.02,2.28,2.28-1.02,2.28-2.28,2.28Z"/><path class="cls-3" d="m756.15,252.17c-4.24,0-7.68-3.61-7.68-8.07v-45.14c0-4.46,3.44-8.07,7.68-8.07h74.14c4.24,0,7.68,3.61,7.68,8.07v45.14c0,4.46-3.44,8.07-7.68,8.07h-74.14Z"/><path class="cls-15" d="m758.72,249.1c-3.82,0-6.91-3.25-6.91-7.26v-40.61c0-4.01,3.09-7.26,6.91-7.26h69c3.82,0,6.91,3.25,6.91,7.26v40.61c0,4.01-3.09,7.26-6.91,7.26h-69Z"/><path class="cls-3" d="m857.66,252.17c-4.24,0-7.68-3.61-7.68-8.07v-45.14c0-4.46,3.44-8.07,7.68-8.07h74.14c4.24,0,7.68,3.61,7.68,8.07v45.14c0,4.46-3.44,8.07-7.68,8.07h-74.14Z"/><path class="cls-15" d="m860.22,249.1c-3.82,0-6.91-3.25-6.91-7.26v-40.61c0-4.01,3.09-7.26,6.91-7.26h69c3.82,0,6.91,3.25,6.91,7.26v40.61c0,4.01-3.09,7.26-6.91,7.26h-69Z"/><path class="cls-3" d="m959.16,252.17c-4.24,0-7.68-3.61-7.68-8.07v-45.14c0-4.46,3.44-8.07,7.68-8.07h74.14c4.24,0,7.68,3.61,7.68,8.07v45.14c0,4.46-3.44,8.07-7.68,8.07h-74.14Z"/><path class="cls-15" d="m961.73,249.1c-3.82,0-6.91-3.25-6.91-7.26v-40.61c0-4.01,3.09-7.26,6.91-7.26h69c3.82,0,6.91,3.25,6.91,7.26v40.61c0,4.01-3.09,7.26-6.91,7.26h-69Z"/><text class="cls-6" transform="translate(750.89 262.12)"><tspan class="cls-1"><tspan x="0" y="0">Conversations with my Gardener</tspan></tspan><tspan class="cls-11"><tspan x="0" y="6.92">2007</tspan></tspan></text><text class="cls-6" transform="translate(853.55 262.12)"><tspan class="cls-1"><tspan x="0" y="0">Argo</tspan></tspan><tspan class="cls-11"><tspan x="0" y="6.92">2021</tspan></tspan></text><text class="cls-6" transform="translate(955.05 262.12)"><tspan class="cls-1"><tspan x="0" y="0">About Schmidt</tspan></tspan><tspan class="cls-11"><tspan x="0" y="6.92">2002</tspan></tspan></text><path class="cls-3" d="m756.15,340.21c-4.24,0-7.68-3.61-7.68-8.07v-45.14c0-4.46,3.44-8.07,7.68-8.07h74.14c4.24,0,7.68,3.61,7.68,8.07v45.14c0,4.46-3.44,8.07-7.68,8.07h-74.14Z"/><path class="cls-15" d="m758.72,337.14c-3.82,0-6.91-3.25-6.91-7.26v-40.61c0-4.01,3.09-7.26,6.91-7.26h69c3.82,0,6.91,3.25,6.91,7.26v40.61c0,4.01-3.09,7.26-6.91,7.26h-69Z"/><path class="cls-3" d="m857.66,340.21c-4.24,0-7.68-3.61-7.68-8.07v-45.14c0-4.46,3.44-8.07,7.68-8.07h74.14c4.24,0,7.68,3.61,7.68,8.07v45.14c0,4.46-3.44,8.07-7.68,8.07h-74.14Z"/><path class="cls-15" d="m860.22,337.14c-3.82,0-6.91-3.25-6.91-7.26v-40.61c0-4.01,3.09-7.26,6.91-7.26h69c3.82,0,6.91,3.25,6.91,7.26v40.61c0,4.01-3.09,7.26-6.91,7.26h-69Z"/><path class="cls-3" d="m959.16,340.21c-4.24,0-7.68-3.61-7.68-8.07v-45.14c0-4.46,3.44-8.07,7.68-8.07h74.14c4.24,0,7.68,3.61,7.68,8.07v45.14c0,4.46-3.44,8.07-7.68,8.07h-74.14Z"/><path class="cls-15" d="m961.73,337.14c-3.82,0-6.91-3.25-6.91-7.26v-40.61c0-4.01,3.09-7.26,6.91-7.26h69c3.82,0,6.91,3.25,6.91,7.26v40.61c0,4.01-3.09,7.26-6.91,7.26h-69Z"/><text class="cls-6" transform="translate(750.89 347.85)"><tspan class="cls-1"><tspan x="0" y="0">The Birds</tspan></tspan><tspan class="cls-11"><tspan x="0" y="6.92">1967</tspan></tspan></text><text class="cls-6" transform="translate(853.55 347.85)"><tspan class="cls-1"><tspan x="0" y="0">Devils</tspan><tspan class="cls-9" x="15.7" y="0"> </tspan><tspan x="16.99" y="0">Advocate</tspan></tspan><tspan class="cls-11"><tspan x="0" y="6.92">2002</tspan></tspan></text><text class="cls-6" transform="translate(955.05 347.85)"><tspan class="cls-1"><tspan x="0" y="0">Run Rabbit Run</tspan></tspan><tspan class="cls-11"><tspan x="0" y="6.92">2021</tspan></tspan></text><path class="cls-3" d="m756.15,423.29c-4.24,0-7.68-3.61-7.68-8.07v-45.14c0-4.46,3.44-8.07,7.68-8.07h74.14c4.24,0,7.68,3.61,7.68,8.07v45.14c0,4.46-3.44,8.07-7.68,8.07h-74.14Z"/><path class="cls-15" d="m758.72,420.21c-3.82,0-6.91-3.25-6.91-7.26v-40.61c0-4.01,3.09-7.26,6.91-7.26h69c3.82,0,6.91,3.25,6.91,7.26v40.61c0,4.01-3.09,7.26-6.91,7.26h-69Z"/><path class="cls-3" d="m857.66,423.29c-4.24,0-7.68-3.61-7.68-8.07v-45.14c0-4.46,3.44-8.07,7.68-8.07h74.14c4.24,0,7.68,3.61,7.68,8.07v45.14c0,4.46-3.44,8.07-7.68,8.07h-74.14Z"/><path class="cls-15" d="m860.22,420.21c-3.82,0-6.91-3.25-6.91-7.26v-40.61c0-4.01,3.09-7.26,6.91-7.26h69c3.82,0,6.91,3.25,6.91,7.26v40.61c0,4.01-3.09,7.26-6.91,7.26h-69Z"/><path class="cls-3" d="m959.16,423.29c-4.24,0-7.68-3.61-7.68-8.07v-45.14c0-4.46,3.44-8.07,7.68-8.07h74.14c4.24,0,7.68,3.61,7.68,8.07v45.14c0,4.46-3.44,8.07-7.68,8.07h-74.14Z"/><path class="cls-15" d="m961.73,420.21c-3.82,0-6.91-3.25-6.91-7.26v-40.61c0-4.01,3.09-7.26,6.91-7.26h69c3.82,0,6.91,3.25,6.91,7.26v40.61c0,4.01-3.09,7.26-6.91,7.26h-69Z"/><text class="cls-6" transform="translate(750.89 432.08)"><tspan class="cls-1"><tspan x="0" y="0">Murder she wrote</tspan></tspan><tspan class="cls-11"><tspan x="0" y="6.92">2004</tspan></tspan></text><text class="cls-6" transform="translate(853.55 432.08)"><tspan class="cls-1"><tspan class="cls-10" x="0" y="0">A</tspan><tspan class="cls-12" x="3.53" y="0" xml:space="preserve"> touch of frost</tspan></tspan><tspan class="cls-11"><tspan x="0" y="6.92">1989</tspan></tspan></text><text class="cls-6" transform="translate(955.05 432.08)"><tspan class="cls-1"><tspan x="0" y="0">Midsomer Murders</tspan></tspan><tspan class="cls-11"><tspan x="0" y="6.92">2003</tspan></tspan></text><path class="cls-3" d="m747,51.45h295c11,0,16.5,5.5,16.5,16.5v487c0,11-5.5,16.5-16.5,16.5h-295c-11,0-16.5-5.5-16.5-16.5V67.95c0-11,5.5-16.5,16.5-16.5Z"/><path class="cls-3" d="m737.1,84.45h314.8v454h-314.8V84.45Z"/><rect class="cls-15" x="737.47" y="507.78" width="314" height="30"/><rect class="cls-15" x="737.47" y="507.78" width="314" height="30"/><path class="cls-5" d="m749.79,529c-.85,0-1.54-.72-1.54-1.61v-9.02c0-.89.69-1.61,1.54-1.61h14.82c.85,0,1.54.72,1.54,1.61v9.02c0,.89-.69,1.61-1.54,1.61h-14.82Z"/><polygon class="cls-14" points="754.96 520.66 759.17 522.77 754.96 524.89 754.96 520.66"/><path class="cls-14" d="m755.67,521.81l1.93.96-1.93.96v-1.93m-1.42-2.3v6.52l6.51-3.26-6.51-3.26h0Z"/><polygon class="cls-14" points="939.01 526.42 940.49 524.95 944.7 529.34 943.31 530.72 939.01 526.42"/><path class="cls-14" d="m940.49,525.12l4.04,4.21-1.21,1.21-4.12-4.12,1.3-1.3m0-.36l-1.66,1.66,4.48,4.48,1.56-1.56-4.38-4.57h0Z"/><path class="cls-13" d="m935.94,528.19c-1.69,0-3.27-.66-4.47-1.85-2.46-2.46-2.46-6.47,0-8.93,1.19-1.19,2.78-1.85,4.47-1.85s3.27.66,4.47,1.85c2.46,2.46,2.46,6.47,0,8.93-1.19,1.19-2.78,1.85-4.47,1.85Z"/><path class="cls-14" d="m935.94,516.26c1.5,0,2.91.58,3.96,1.64,1.06,1.06,1.64,2.47,1.64,3.96s-.58,2.91-1.64,3.97-2.47,1.64-3.96,1.64-2.91-.58-3.97-1.64-1.64-2.47-1.64-3.97.58-2.91,1.64-3.96,2.47-1.64,3.97-1.64m0-1.42c-1.8,0-3.6.69-4.97,2.06-2.74,2.74-2.74,7.19,0,9.93,1.37,1.37,3.17,2.06,4.97,2.06s3.6-.69,4.97-2.06c2.74-2.74,2.74-7.19,0-9.93-1.37-1.37-3.17-2.06-4.97-2.06h0Z"/><polygon class="cls-13" points="844.5 528.02 839.56 530.62 840.51 525.12 836.51 521.23 842.03 520.43 844.5 515.43 846.96 520.43 852.48 521.23 848.49 525.12 849.43 530.62 844.5 528.02"/><path class="cls-14" d="m844.5,517.04l1.67,3.38.33.67.74.11,3.73.54-2.7,2.63-.53.52.13.73.64,3.71-3.33-1.75-.66-.35-.66.35-3.33,1.75.64-3.71.13-.73-.53-.52-2.7-2.63,3.73-.54.74-.11.33-.67,1.67-3.38m0-3.2l-2.94,5.95-6.57.95,4.75,4.63-1.12,6.54,5.87-3.09,5.87,3.09-1.12-6.54,4.75-4.63-6.57-.95-2.94-5.95h0Z"/><path class="cls-2" d="m1032.14,521.09h-1.64c-.26,0-.48-.15-.58-.39s-.05-.5.14-.69l1.16-1.16c.17-.17.26-.4.26-.64s-.09-.47-.26-.64l-1.48-1.48c-.34-.34-.94-.34-1.28,0l-1.16,1.16c-.19.19-.44.24-.69.14-.24-.1-.39-.32-.39-.58v-1.64c0-.5-.41-.9-.9-.9h-2.09c-.5,0-.9.41-.9.9v1.64c0,.26-.15.48-.39.58-.24.1-.5.05-.69-.14l-1.16-1.16c-.34-.34-.94-.34-1.28,0l-1.48,1.48c-.17.17-.26.4-.26.64s.09.47.26.64l1.16,1.16c.19.19.24.44.14.69s-.32.39-.58.39h-1.64c-.5,0-.9.41-.9.9v2.09c0,.5.41.9.9.9h1.64c.26,0,.48.15.58.39s.05.5-.14.69l-1.16,1.16c-.17.17-.26.4-.26.64s.09.47.26.64l1.48,1.48c.34.34.94.34,1.28,0l1.16-1.16c.19-.19.44-.24.69-.14.24.1.39.32.39.58v1.64c0,.5.41.9.9.9h2.09c.5,0,.9-.41.9-.9v-1.64c0-.26.15-.48.39-.58.24-.1.5-.05.69.14l1.16,1.16c.34.34.94.34,1.28,0l1.48-1.48c.17-.17.26-.4.26-.64s-.09-.47-.26-.64l-1.16-1.16c-.19-.19-.24-.44-.14-.69s.32-.39.58-.39h1.64c.5,0,.9-.41.9-.9v-2.09c0-.5-.41-.9-.9-.9Z"/><path class="cls-4" d="m1032.39,524.09c0,.14-.11.25-.25.25h-1.64c-.53,0-.98.3-1.18.79-.2.49-.1,1.02.28,1.4l1.16,1.16c.1.1.1.26,0,.36l-1.48,1.48c-.1.1-.26.1-.36,0l-1.16-1.16c-.37-.37-.91-.48-1.4-.28-.49.2-.79.66-.79,1.18v1.64c0,.14-.11.25-.25.25h-2.09c-.14,0-.25-.11-.25-.25v-1.64c0-.53-.3-.98-.79-1.18-.16-.07-.33-.1-.5-.1-.33,0-.65.13-.9.38l-1.16,1.16c-.1.1-.26.1-.36,0l-1.48-1.48c-.1-.1-.1-.26,0-.36l1.16-1.16c.37-.37.48-.91.28-1.4-.2-.49-.66-.79-1.18-.79h-1.64c-.14,0-.25-.11-.25-.25v-2.09c0-.14.11-.25.25-.25h1.64c.53,0,.98-.3,1.18-.79.2-.49.1-1.02-.28-1.4l-1.16-1.16c-.1-.1-.1-.26,0-.36l1.48-1.48c.1-.1.26-.1.36,0l1.16,1.16c.37.37.91.48,1.4.28.49-.2.79-.66.79-1.18v-1.64c0-.14.11-.25.25-.25h2.09c.14,0,.25.11.25.25v1.64c0,.53.3.98.79,1.18.49.2,1.02.1,1.4-.28l1.16-1.16c.1-.1.26-.1.36,0l1.48,1.48c.1.1.1.26,0,.36l-1.16,1.16c-.37.37-.48.91-.28,1.4.2.49.66.79,1.18.79h1.64c.14,0,.25.11.25.25v2.09Z"/><path class="cls-2" d="m1024.27,520.12c-1.61,0-2.93,1.31-2.93,2.93s1.31,2.93,2.93,2.93,2.93-1.31,2.93-2.93-1.31-2.93-2.93-2.93Zm0,5.2c-1.25,0-2.28-1.02-2.28-2.28s1.02-2.28,2.28-2.28,2.28,1.02,2.28,2.28-1.02,2.28-2.28,2.28Z"/><path class="cls-3" d="m761.94,160.86c-4.24,0-7.68-3.61-7.68-8.07v-5.14c0-4.46,3.44-8.07,7.68-8.07h265.14c4.24,0,7.68,3.61,7.68,8.07v5.14c0,4.46-3.44,8.07-7.68,8.07h-265.14Z"/><path class="cls-14" d="m259.48,115.88c-5.82-7.25-7.17-16.89-6.97-25.92s1.85-18.99,4.42-28.08c5.18-18.34,15.28-35.71,31.06-46.84,7.5-5.29,16-9.15,25.02-10.96s18.5-1.27,27.39,1.51c18.51,5.79,33.51,19.54,47.61,32.29,13.74,12.43,27.64,26.19,34.62,43.72.84,2.12,1.57,4.27,2.2,6.46.53,1.85,3.43,1.07,2.89-.8-5.44-19.01-18.94-34.14-33.08-47.36-7.26-6.79-14.71-13.46-22.51-19.62-7.87-6.21-16.25-11.83-25.55-15.64s-18.81-5.36-28.53-4.33-18.55,4.19-26.71,9.02c-17.16,10.14-28.89,26.97-35.35,45.59-3.3,9.5-5.29,19.48-6.16,29.49-.81,9.32-.41,19.21,3.77,27.76,1.03,2.1,2.3,4.03,3.76,5.85,1.21,1.51,3.32-.63,2.12-2.12h0Z"/><path class="cls-14" d="m429.92,72.13c-.57,3.46-1.51,6.88-2.88,10.11-.65,1.54-1.41,3.04-2.24,4.5-.28.5-.69,1.56-1.3,1.68-.71.15-2.04-.59-2.7-.82-7.44-2.61-14.88-5.21-22.32-7.82-1.83-.64-2.61,2.26-.8,2.89,4.23,1.48,8.46,2.96,12.68,4.44,2.04.71,4.07,1.43,6.11,2.14s4.13,1.71,6.23,2.1c1.9.35,3.17-.63,4.12-2.16s1.86-3.31,2.62-5.04c1.58-3.6,2.72-7.35,3.35-11.23.31-1.89-2.58-2.7-2.89-.8h0Z"/><path class="cls-14" d="m569.95,520.64c10.4-25.37,26.99-47.6,45.6-67.53,9.39-10.06,19.33-19.6,29.46-28.91,5.11-4.7,10.28-9.33,15.46-13.95s10.54-9.52,16.1-13.93c12.45-9.89,28.74-18.27,44.95-13.16,1.85.58,2.64-2.31.8-2.89-14.34-4.52-29.46.93-41.36,9.09-6.2,4.25-11.86,9.22-17.47,14.2-5.29,4.7-10.58,9.41-15.83,14.16-10.46,9.48-20.75,19.16-30.53,29.34s-18.84,20.67-27.05,31.98c-8.19,11.28-15.39,23.31-21.03,36.07-.69,1.57-1.36,3.14-2.01,4.73-.73,1.78,2.17,2.56,2.89.8h0Z"/><path class="cls-14" d="m711.5,365.32c3.09,2,6.02,4.22,8.76,6.68.95.85,3.2,2.26,2.53,3.72-.38.81-1.06,1.53-1.6,2.25-.59.79-1.18,1.59-1.77,2.38-4.72,6.34-9.44,12.68-14.16,19.02-1.15,1.55,1.45,3.05,2.59,1.51,5.31-7.13,10.62-14.27,15.93-21.4,1.1-1.47,2.47-3.01,2.16-4.98-.29-1.85-1.92-3.13-3.22-4.31-3.02-2.75-6.28-5.24-9.71-7.46-1.63-1.05-3.13,1.54-1.51,2.59h0Z"/></svg>