<?xml version="1.0" encoding="UTF-8"?><svg id="Laag_1" xmlns="http://www.w3.org/2000/svg" viewBox="0 0 709 540.46"><defs><style>.cls-1{font-family:AmericanTypewriter-Bold, 'American Typewriter';font-size:16px;}.cls-1,.cls-2,.cls-3,.cls-4,.cls-5,.cls-6{fill:#fff;}.cls-1,.cls-7,.cls-6{font-weight:700;}.cls-8{stroke:#fff;stroke-linecap:round;stroke-width:1.42px;}.cls-8,.cls-9,.cls-2,.cls-3,.cls-4,.cls-10,.cls-11{stroke-miterlimit:10;}.cls-8,.cls-10{fill:none;}.cls-12{letter-spacing:0em;}.cls-9,.cls-2,.cls-3,.cls-4,.cls-10,.cls-11{stroke:#000;}.cls-2{stroke-width:.99px;}.cls-7,.cls-13{font-size:12px;}.cls-7,.cls-6{font-family:Arial-BoldMT, Arial;}.cls-14{letter-spacing:0em;}.cls-13{font-family:MyriadPro-Regular, 'Myriad Pro';}.cls-15{letter-spacing:-.06em;}.cls-16{letter-spacing:0em;}.cls-17{letter-spacing:-.01em;}.cls-18{letter-spacing:.02em;}.cls-4,.cls-11{stroke-width:.67px;}.cls-19{letter-spacing:0em;}.cls-20{letter-spacing:0em;}.cls-21,.cls-22,.cls-5,.cls-23{stroke-width:0px;}.cls-24{letter-spacing:-.07em;}.cls-22{fill:#dbdbdb;}.cls-23{fill:#010101;}.cls-6{font-size:10px;}</style></defs><path class="cls-5" d="m254.1,22.5h206.8v377h-206.8V22.5Z"/><path class="cls-5" d="m7.1,22.5h206.8v377H7.1V22.5Z"/><path class="cls-10" d="m22.15,363.04c-4.24,0-7.68-3.61-7.68-8.07V115.54c0-4.46,3.44-8.07,7.68-8.07h176.14c4.24,0,7.68,3.61,7.68,8.07v239.43c0,4.46-3.44,8.07-7.68,8.07H22.15Z"/><path class="cls-10" d="m17,.5h187c11,0,16.5,5.5,16.5,16.5v381c0,11-5.5,16.5-16.5,16.5H17c-11,0-16.5-5.5-16.5-16.5V17C.5,6,6,.5,17,.5Z"/><rect class="cls-22" x="6.94" y="369.35" width="206.53" height="30"/><polygon class="cls-21" points="193.05 387.99 194.53 386.51 198.74 390.91 197.35 392.29 193.05 387.99"/><path class="cls-21" d="m194.53,386.69l4.04,4.21-1.21,1.21-4.12-4.12,1.3-1.3m0-.36l-1.66,1.66,4.48,4.48,1.56-1.56-4.38-4.57h0Z"/><path class="cls-5" d="m189.98,389.75c-1.69,0-3.27-.66-4.47-1.85-2.46-2.46-2.46-6.47,0-8.93,1.19-1.19,2.78-1.85,4.47-1.85s3.27.66,4.47,1.85c2.46,2.46,2.46,6.47,0,8.93-1.19,1.19-2.78,1.85-4.47,1.85Z"/><path class="cls-21" d="m189.98,377.83c1.5,0,2.91.58,3.97,1.64,1.06,1.06,1.64,2.47,1.64,3.97s-.58,2.91-1.64,3.97c-1.06,1.06-2.47,1.64-3.97,1.64s-2.91-.58-3.96-1.64c-1.06-1.06-1.64-2.47-1.64-3.97s.58-2.91,1.64-3.97c1.06-1.06,2.47-1.64,3.96-1.64m0-1.42c-1.8,0-3.6.69-4.97,2.06-2.74,2.74-2.74,7.19,0,9.93,1.37,1.37,3.17,2.06,4.97,2.06s3.6-.69,4.97-2.06c2.74-2.74,2.74-7.19,0-9.93-1.37-1.37-3.17-2.06-4.97-2.06h0Z"/><path class="cls-2" d="m129.52,384.4c0-4.97,4.03-8.99,8.99-8.99s8.99,4.03,8.99,8.99-4.03,8.99-8.99,8.99-8.99-4.03-8.99-8.99Z"/><path class="cls-11" d="m134.81,382.71c0-1.49,1.21-2.7,2.7-2.7s2.7,1.21,2.7,2.7-1.21,2.7-2.7,2.7-2.7-1.21-2.7-2.7Z"/><path class="cls-11" d="m134.46,385.4h6.1c.67,0,1,.33,1,1v4.4h-8.09v-4.4c0-.67.33-1,1-1Z"/><path class="cls-4" d="m137.81,379.71c0-1.49,1.21-2.7,2.7-2.7s2.7,1.21,2.7,2.7-1.21,2.7-2.7,2.7-2.7-1.21-2.7-2.7Z"/><path class="cls-4" d="m137.46,382.4h6.1c.67,0,1,.33,1,1v4.4h-8.09v-4.4c0-.67.33-1,1-1Z"/><path class="cls-5" d="m21.4,376.44v15.96c0,.13.05.25.14.34.09.09.21.14.34.14h17.29c.13,0,.25-.05.34-.14.09-.09.14-.21.14-.34v-15.96"/><path class="cls-21" d="m33.88,374.34c0-.43.43-.78.96-.78s.96.35.96.78v3.44c0,.43-.43.78-.96.78s-.96-.35-.96-.78v-3.44h0Zm-2.57,16.44c-.06,0-.1-.24-.1-.53s.04-.53.1-.53h2.62c.06,0,.1.24.1.53s-.04.53-.1.53h-2.62Zm-8.34-6.09c-.06,0-.1-.24-.1-.53s.04-.53.1-.53h2.62c.06,0,.1.24.1.53s-.04.53-.1.53h-2.62Zm4.17,0c-.06,0-.1-.24-.1-.53s.04-.53.1-.53h2.62c.06,0,.1.24.1.53s-.04.53-.1.53h-2.62Zm4.17,0c-.06,0-.1-.24-.1-.53s.04-.53.1-.53h2.62c.06,0,.1.24.1.53s-.04.53-.1.53h-2.62Zm4.17,0c-.06,0-.1-.24-.1-.53s.04-.53.1-.53h2.62c.06,0,.1.24.1.53s-.04.53-.1.53h-2.62Zm-12.51,3.05c-.06,0-.1-.24-.1-.53s.04-.53.1-.53h2.62c.06,0,.1.24.1.53s-.04.53-.1.53h-2.62Zm4.17,0c-.06,0-.1-.24-.1-.53s.04-.53.1-.53h2.62c.06,0,.1.24.1.53s-.04.53-.1.53h-2.62Zm4.17,0c-.06,0-.1-.24-.1-.53s.04-.53.1-.53h2.62c.06,0,.1.24.1.53s-.04.53-.1.53h-2.62Zm4.17,0c-.06,0-.1-.24-.1-.53s.04-.53.1-.53h2.62c.06,0,.1.24.1.53s-.04.53-.1.53h-2.62Zm-12.51,3.05c-.06,0-.1-.24-.1-.53s.04-.53.1-.53h2.62c.06,0,.1.24.1.53s-.04.53-.1.53h-2.62Zm4.17,0c-.06,0-.1-.24-.1-.53s.04-.53.1-.53h2.62c.06,0,.1.24.1.53s-.04.53-.1.53h-2.62Zm-1.89-16.44c0-.43.43-.78.96-.78s.96.35.96.78v3.44c0,.43-.43.78-.96.78s-.96-.35-.96-.78v-3.44h0Zm-3.85,6.73h18.26v-3.96c0-.13-.05-.25-.14-.34-.09-.09-.21-.14-.34-.14h-1.75c-.29,0-.53-.24-.53-.53s.24-.53.53-.53h1.75c.43,0,.81.17,1.09.45.28.28.45.67.45,1.09v15.28c0,.43-.17.81-.45,1.09s-.67.45-1.09.45h-17.29c-.43,0-.81-.17-1.09-.45-.28-.28-.45-.67-.45-1.1v-15.28c0-.43.17-.81.45-1.09.28-.28.67-.45,1.09-.45h1.87c.29,0,.53.24.53.53s-.24.53-.53.53h-1.87c-.13,0-.25.05-.34.14-.09.09-.14.21-.14.34v3.96h0Zm18.26,1.06h-18.26v10.26c0,.13.05.25.14.34.09.09.21.14.34.14h17.29c.13,0,.25-.05.34-.14.09-.09.14-.21.14-.34v-10.26h0Zm-10.96-5.51c-.29,0-.53-.24-.53-.53s.24-.53.53-.53h3.57c.29,0,.53.24.53.53s-.24.53-.53.53h-3.57Z"/><text class="cls-7" transform="translate(106.68 126.16)"><tspan class="cls-15" x="0" y="0">V</tspan><tspan x="7.34" y="0">andaag</tspan></text><path class="cls-10" d="m53.08,27.47h145.21c4.24,0,7.68,3.61,7.68,8.07v14.14c0,4.46-3.44,8.07-7.68,8.07H53.08v-30.28Z"/><path class="cls-9" d="m53.08,57.75h-30.93c-4.24,0-7.68-3.61-7.68-8.07v-14.14c0-4.46,3.44-8.07,7.68-8.07h30.93v30.28Z"/><text class="cls-1" transform="translate(20.68 42.16)"><tspan x="0" y="0">26</tspan></text><text class="cls-6" transform="translate(20.68 53.16)"><tspan x="0" y="0">April</tspan></text><path class="cls-10" d="m53.08,67.47h145.21c4.24,0,7.68,3.61,7.68,8.07v14.14c0,4.46-3.44,8.07-7.68,8.07H53.08v-30.28Z"/><path class="cls-9" d="m53.08,97.75h-30.93c-4.24,0-7.68-3.61-7.68-8.07v-14.14c0-4.46,3.44-8.07,7.68-8.07h30.93v30.28Z"/><text class="cls-1" transform="translate(20.68 82.16)"><tspan x="0" y="0">27</tspan></text><text class="cls-6" transform="translate(20.68 93.16)"><tspan x="0" y="0">April</tspan></text><path class="cls-3" d="m28.15,175.75c-4.24,0-7.68-3.61-7.68-8.07v-14.14c0-4.46,3.44-8.07,7.68-8.07h163.14c4.24,0,7.68,3.61,7.68,8.07v14.14c0,4.46-3.44,8.07-7.68,8.07H28.15Z"/><path class="cls-10" d="m53.08,107.47h145.21c4.24,0,7.68,3.61,7.68,8.07v14.14c0,4.46-3.44,8.07-7.68,8.07H53.08v-30.28Z"/><path class="cls-9" d="m53.08,137.75h-30.93c-4.24,0-7.68-3.61-7.68-8.07v-14.14c0-4.46,3.44-8.07,7.68-8.07h30.93v30.28Z"/><text class="cls-1" transform="translate(20.68 122.16)"><tspan x="0" y="0">28</tspan></text><text class="cls-6" transform="translate(20.68 133.16)"><tspan x="0" y="0">April</tspan></text><polygon class="cls-21" points="120.75 50.1 115.4 55.45 110.04 50.1 120.75 50.1"/><polygon class="cls-21" points="120.75 89.1 115.4 94.45 110.04 89.1 120.75 89.1"/><polygon class="cls-21" points="110.04 359.1 115.4 353.74 120.75 359.1 110.04 359.1"/><text class="cls-13" transform="translate(82.35 158.25)"><tspan x="0" y="0">9:00 - 10:00</tspan></text><text class="cls-13" transform="translate(82.35 171.25)"><tspan class="cls-17" x="0" y="0">L</tspan><tspan x="5.5" y="0">o</tspan><tspan class="cls-18" x="12.08" y="0">k</tspan><tspan class="cls-16" x="17.93" y="0">aal 1.2</tspan></text><text class="cls-13" transform="translate(28.18 165.25)"><tspan class="cls-12" x="0" y="0">B</tspan><tspan x="6.55" y="0">oksen</tspan></text><text class="cls-7" transform="translate(268.18 42.25)"><tspan x="0" y="0">Sporten</tspan></text><text class="cls-7" transform="translate(268.18 319.25)"><tspan x="0" y="0">Nieuwe sport</tspan></text><text class="cls-13" transform="translate(151.35 163.25)"><tspan x="0" y="0">G</tspan><tspan class="cls-20" x="7.75" y="0">r</tspan><tspan x="11.56" y="0">oep A</tspan></text><path class="cls-3" d="m28.15,215.75c-4.24,0-7.68-3.61-7.68-8.07v-14.14c0-4.46,3.44-8.07,7.68-8.07h163.14c4.24,0,7.68,3.61,7.68,8.07v14.14c0,4.46-3.44,8.07-7.68,8.07H28.15Z"/><text class="cls-13" transform="translate(82.35 198.25)"><tspan x="0" y="0">9:00 - 10:00</tspan></text><text class="cls-13" transform="translate(82.35 211.25)"><tspan class="cls-17" x="0" y="0">L</tspan><tspan x="5.5" y="0">o</tspan><tspan class="cls-18" x="12.08" y="0">k</tspan><tspan class="cls-16" x="17.93" y="0">aal 1.3</tspan></text><text class="cls-13" transform="translate(28.18 205.25)"><tspan class="cls-24" x="0" y="0">T</tspan><tspan class="cls-14" x="5.11" y="0">ennis</tspan></text><text class="cls-13" transform="translate(151.35 203.25)"><tspan x="0" y="0">G</tspan><tspan class="cls-20" x="7.75" y="0">r</tspan><tspan x="11.56" y="0">oep B</tspan></text><path class="cls-3" d="m28.15,255.75c-4.24,0-7.68-3.61-7.68-8.07v-14.14c0-4.46,3.44-8.07,7.68-8.07h163.14c4.24,0,7.68,3.61,7.68,8.07v14.14c0,4.46-3.44,8.07-7.68,8.07H28.15Z"/><text class="cls-13" transform="translate(82.35 238.25)"><tspan x="0" y="0">11:00 - 12:00</tspan></text><text class="cls-13" transform="translate(82.35 251.25)"><tspan class="cls-17" x="0" y="0">L</tspan><tspan x="5.5" y="0">o</tspan><tspan class="cls-18" x="12.08" y="0">k</tspan><tspan class="cls-16" x="17.93" y="0">aal 1.6</tspan></text><text class="cls-13" transform="translate(28.18 245.25)"><tspan class="cls-19" x="0" y="0">S</tspan><tspan x="5.99" y="0">chaken</tspan></text><text class="cls-13" transform="translate(151.35 243.25)"><tspan x="0" y="0">G</tspan><tspan class="cls-20" x="7.75" y="0">r</tspan><tspan x="11.56" y="0">oep C</tspan></text><path class="cls-21" d="m89.37,381.1c.49.84.79,1.71,1.4,2.44.1.1.19.21.3.25.15.08.34.05.5.02.7-.19,1.35-.75,1.88-1.28.85-.89,1.57-1.89,2.22-2.95.02-.03.06-.04.09-.02.03.02.04.05.03.08-.27,1.26-.74,2.47-1.39,3.59-2.43,4.26-6.01,2.83-6.99-1.48-.24-1.23,1.4-1.76,1.95-.65h0Z"/><path class="cls-21" d="m83.06,378.95c-.81-.69-1.54-1.44-2.49-1.92-2.32-1.23-3.42,3.35-3.64,4.97-.01.08-.13.07-.13,0-.35-2-.23-4.94,1.38-6.41,2.15-1.87,5.21.08,6.49,2.08.65,1.07-.71,2.15-1.61,1.29h0Z"/><path class="cls-23" d="m84.7,386.82c-.56-.56-1.13-.99-1.73-1.44-1.14-.83-2.23-1.59-3.55-2.04l-.23-.08c-.52-.17-1.11-.02-1.48.42-.49.58-.55,1.65.03,2.13.1.08.53.33,1.06.64-.11.11-.22.21-.34.32-1.27,1.21-2.44,2.54-3.66,3.8-1.52,1.55-3.19,3.22-4.74,4.74-.03.03-.04.08-.02.11.03.05.09.06.14.03,3.08-1.71,6.05-3.58,9-5.48.51-.34,1.06-.73,1.56-1.09.33-.24.66-.48.96-.75.5.31,1.01.64,1.44,1.01-.28.27-.62.48-.98.71-1.72,1.05-3.61,1.96-5.33,3.01-.09.05-.04.19.06.18,2.09-.31,4.14-.68,6.15-1.36.8-.3,1.62-.6,2.24-1.29,1.04-1.21.41-2.64-.58-3.59h0Z"/><circle class="cls-23" cx="88.72" cy="377.76" r="2.19"/><path class="cls-10" d="m264,.5h187c11,0,16.5,5.5,16.5,16.5v381c0,11-5.5,16.5-16.5,16.5h-187c-11,0-16.5-5.5-16.5-16.5V17c0-11,5.5-16.5,16.5-16.5Z"/><rect class="cls-22" x="253.94" y="369.35" width="206.53" height="30"/><polygon class="cls-21" points="440.05 387.99 441.53 386.51 445.74 390.91 444.35 392.29 440.05 387.99"/><path class="cls-21" d="m441.53,386.69l4.04,4.21-1.21,1.21-4.12-4.12,1.3-1.3m0-.36l-1.66,1.66,4.48,4.48,1.56-1.56-4.38-4.57h0Z"/><path class="cls-5" d="m436.98,389.75c-1.69,0-3.27-.66-4.47-1.85-2.46-2.46-2.46-6.47,0-8.93,1.19-1.19,2.78-1.85,4.47-1.85s3.27.66,4.47,1.85c2.46,2.46,2.46,6.47,0,8.93-1.19,1.19-2.78,1.85-4.47,1.85Z"/><path class="cls-21" d="m436.98,377.83c1.5,0,2.91.58,3.97,1.64,1.06,1.06,1.64,2.47,1.64,3.97s-.58,2.91-1.64,3.97c-1.06,1.06-2.47,1.64-3.97,1.64s-2.91-.58-3.96-1.64c-1.06-1.06-1.64-2.47-1.64-3.97s.58-2.91,1.64-3.97c1.06-1.06,2.47-1.64,3.96-1.64m0-1.42c-1.8,0-3.6.69-4.97,2.06-2.74,2.74-2.74,7.19,0,9.93,1.37,1.37,3.17,2.06,4.97,2.06s3.6-.69,4.97-2.06c2.74-2.74,2.74-7.19,0-9.93-1.37-1.37-3.17-2.06-4.97-2.06h0Z"/><path class="cls-2" d="m376.52,384.4c0-4.97,4.03-8.99,8.99-8.99s8.99,4.03,8.99,8.99-4.03,8.99-8.99,8.99-8.99-4.03-8.99-8.99Z"/><path class="cls-11" d="m381.81,382.71c0-1.49,1.21-2.7,2.7-2.7s2.7,1.21,2.7,2.7-1.21,2.7-2.7,2.7-2.7-1.21-2.7-2.7Z"/><path class="cls-11" d="m381.46,385.4h6.1c.67,0,1,.33,1,1v4.4h-8.09v-4.4c0-.67.33-1,1-1Z"/><path class="cls-4" d="m384.81,379.71c0-1.49,1.21-2.7,2.7-2.7s2.7,1.21,2.7,2.7-1.21,2.7-2.7,2.7-2.7-1.21-2.7-2.7Z"/><path class="cls-4" d="m384.46,382.4h6.1c.67,0,1,.33,1,1v4.4h-8.09v-4.4c0-.67.33-1,1-1Z"/><path class="cls-5" d="m268.4,376.44v15.96c0,.13.05.25.14.34.09.09.21.14.34.14h17.29c.13,0,.25-.05.34-.14.09-.09.14-.21.14-.34v-15.96"/><path class="cls-21" d="m280.88,374.34c0-.43.43-.78.96-.78s.96.35.96.78v3.44c0,.43-.43.78-.96.78s-.96-.35-.96-.78v-3.44h0Zm-2.57,16.44c-.06,0-.1-.24-.1-.53s.04-.53.1-.53h2.62c.06,0,.1.24.1.53s-.04.53-.1.53h-2.62Zm-8.34-6.09c-.06,0-.1-.24-.1-.53s.04-.53.1-.53h2.62c.06,0,.1.24.1.53s-.04.53-.1.53h-2.62Zm4.17,0c-.06,0-.1-.24-.1-.53s.04-.53.1-.53h2.62c.06,0,.1.24.1.53s-.04.53-.1.53h-2.62Zm4.17,0c-.06,0-.1-.24-.1-.53s.04-.53.1-.53h2.62c.06,0,.1.24.1.53s-.04.53-.1.53h-2.62Zm4.17,0c-.06,0-.1-.24-.1-.53s.04-.53.1-.53h2.62c.06,0,.1.24.1.53s-.04.53-.1.53h-2.62Zm-12.51,3.05c-.06,0-.1-.24-.1-.53s.04-.53.1-.53h2.62c.06,0,.1.24.1.53s-.04.53-.1.53h-2.62Zm4.17,0c-.06,0-.1-.24-.1-.53s.04-.53.1-.53h2.62c.06,0,.1.24.1.53s-.04.53-.1.53h-2.62Zm4.17,0c-.06,0-.1-.24-.1-.53s.04-.53.1-.53h2.62c.06,0,.1.24.1.53s-.04.53-.1.53h-2.62Zm4.17,0c-.06,0-.1-.24-.1-.53s.04-.53.1-.53h2.62c.06,0,.1.24.1.53s-.04.53-.1.53h-2.62Zm-12.51,3.05c-.06,0-.1-.24-.1-.53s.04-.53.1-.53h2.62c.06,0,.1.24.1.53s-.04.53-.1.53h-2.62Zm4.17,0c-.06,0-.1-.24-.1-.53s.04-.53.1-.53h2.62c.06,0,.1.24.1.53s-.04.53-.1.53h-2.62Zm-1.89-16.44c0-.43.43-.78.96-.78s.96.35.96.78v3.44c0,.43-.43.78-.96.78s-.96-.35-.96-.78v-3.44h0Zm-3.85,6.73h18.26v-3.96c0-.13-.05-.25-.14-.34-.09-.09-.21-.14-.34-.14h-1.75c-.29,0-.53-.24-.53-.53s.24-.53.53-.53h1.75c.43,0,.81.17,1.09.45.28.28.45.67.45,1.09v15.28c0,.43-.17.81-.45,1.09s-.67.45-1.09.45h-17.29c-.43,0-.81-.17-1.09-.45-.28-.28-.45-.67-.45-1.1v-15.28c0-.43.17-.81.45-1.09.28-.28.67-.45,1.09-.45h1.87c.29,0,.53.24.53.53s-.24.53-.53.53h-1.87c-.13,0-.25.05-.34.14-.09.09-.14.21-.14.34v3.96h0Zm18.26,1.06h-18.26v10.26c0,.13.05.25.14.34.09.09.21.14.34.14h17.29c.13,0,.25-.05.34-.14.09-.09.14-.21.14-.34v-10.26h0Zm-10.96-5.51c-.29,0-.53-.24-.53-.53s.24-.53.53-.53h3.57c.29,0,.53.24.53.53s-.24.53-.53.53h-3.57Z"/><path class="cls-3" d="m275.15,85.75c-4.24,0-7.68-3.61-7.68-8.07v-14.14c0-4.46,3.44-8.07,7.68-8.07h163.14c4.24,0,7.68,3.61,7.68,8.07v14.14c0,4.46-3.44,8.07-7.68,8.07h-163.14Z"/><text class="cls-13" transform="translate(275.18 75.25)"><tspan class="cls-12" x="0" y="0">B</tspan><tspan x="6.55" y="0">oksen</tspan></text><path class="cls-3" d="m275.15,121.75c-4.24,0-7.68-3.61-7.68-8.07v-14.14c0-4.46,3.44-8.07,7.68-8.07h163.14c4.24,0,7.68,3.61,7.68,8.07v14.14c0,4.46-3.44,8.07-7.68,8.07h-163.14Z"/><text class="cls-13" transform="translate(275.18 111.25)"><tspan class="cls-24" x="0" y="0">T</tspan><tspan class="cls-14" x="5.11" y="0">ennis</tspan></text><path class="cls-3" d="m275.15,157.75c-4.24,0-7.68-3.61-7.68-8.07v-14.14c0-4.46,3.44-8.07,7.68-8.07h163.14c4.24,0,7.68,3.61,7.68,8.07v14.14c0,4.46-3.44,8.07-7.68,8.07h-163.14Z"/><text class="cls-13" transform="translate(275.18 147.25)"><tspan class="cls-19" x="0" y="0">S</tspan><tspan x="5.99" y="0">chaken</tspan></text><path class="cls-21" d="m336.37,381.1c.49.84.79,1.71,1.4,2.44.1.1.19.21.3.25.15.08.34.05.5.02.7-.19,1.35-.75,1.88-1.28.85-.89,1.57-1.89,2.22-2.95.02-.03.06-.04.09-.02.03.02.04.05.03.08-.27,1.26-.74,2.47-1.39,3.59-2.43,4.26-6.01,2.83-6.99-1.48-.24-1.23,1.4-1.76,1.95-.65h0Z"/><path class="cls-21" d="m330.06,378.95c-.81-.69-1.54-1.44-2.49-1.92-2.32-1.23-3.42,3.35-3.64,4.97-.01.08-.13.07-.13,0-.35-2-.23-4.94,1.38-6.41,2.15-1.87,5.21.08,6.49,2.08.65,1.07-.71,2.15-1.61,1.29h0Z"/><path class="cls-23" d="m331.7,386.82c-.56-.56-1.13-.99-1.73-1.44-1.14-.83-2.23-1.59-3.55-2.04l-.23-.08c-.52-.17-1.11-.02-1.48.42-.49.58-.55,1.65.03,2.13.1.08.53.33,1.06.64-.11.11-.22.21-.34.32-1.27,1.21-2.44,2.54-3.66,3.8-1.52,1.55-3.19,3.22-4.74,4.74-.03.03-.04.08-.02.11.03.05.09.06.14.03,3.08-1.71,6.05-3.58,9-5.48.51-.34,1.06-.73,1.56-1.09.33-.24.66-.48.96-.75.5.31,1.01.64,1.44,1.01-.28.27-.62.48-.98.71-1.72,1.05-3.61,1.96-5.33,3.01-.09.05-.04.19.06.18,2.09-.31,4.14-.68,6.15-1.36.8-.3,1.62-.6,2.24-1.29,1.04-1.21.41-2.64-.58-3.59h0Z"/><circle class="cls-23" cx="335.72" cy="377.76" r="2.19"/><path class="cls-10" d="m7.1,22.5h206.8v377H7.1V22.5Z"/><path class="cls-10" d="m254.1,22.5h206.8v377h-206.8V22.5Z"/><path class="cls-5" d="m495.1,22.5h206.8v377h-206.8V22.5Z"/><text class="cls-7" transform="translate(509.18 42.25)"><tspan x="0" y="0">Groepen</tspan></text><path class="cls-10" d="m505,.5h187c11,0,16.5,5.5,16.5,16.5v381c0,11-5.5,16.5-16.5,16.5h-187c-11,0-16.5-5.5-16.5-16.5V17c0-11,5.5-16.5,16.5-16.5Z"/><rect class="cls-22" x="494.94" y="369.35" width="206.53" height="30"/><polygon class="cls-21" points="681.05 387.99 682.53 386.51 686.74 390.91 685.35 392.29 681.05 387.99"/><path class="cls-21" d="m682.53,386.69l4.04,4.21-1.21,1.21-4.12-4.12,1.3-1.3m0-.36l-1.66,1.66,4.48,4.48,1.56-1.56-4.38-4.57h0Z"/><path class="cls-5" d="m677.98,389.75c-1.69,0-3.27-.66-4.47-1.85-2.46-2.46-2.46-6.47,0-8.93,1.19-1.19,2.78-1.85,4.47-1.85s3.27.66,4.47,1.85c2.46,2.46,2.46,6.47,0,8.93-1.19,1.19-2.78,1.85-4.47,1.85Z"/><path class="cls-21" d="m677.98,377.83c1.5,0,2.91.58,3.97,1.64,1.06,1.06,1.64,2.47,1.64,3.97s-.58,2.91-1.64,3.97c-1.06,1.06-2.47,1.64-3.97,1.64s-2.91-.58-3.96-1.64c-1.06-1.06-1.64-2.47-1.64-3.97s.58-2.91,1.64-3.97c1.06-1.06,2.47-1.64,3.96-1.64m0-1.42c-1.8,0-3.6.69-4.97,2.06-2.74,2.74-2.74,7.19,0,9.93,1.37,1.37,3.17,2.06,4.97,2.06s3.6-.69,4.97-2.06c2.74-2.74,2.74-7.19,0-9.93-1.37-1.37-3.17-2.06-4.97-2.06h0Z"/><path class="cls-2" d="m617.52,384.4c0-4.97,4.03-8.99,8.99-8.99s8.99,4.03,8.99,8.99-4.03,8.99-8.99,8.99-8.99-4.03-8.99-8.99Z"/><path class="cls-11" d="m622.81,382.71c0-1.49,1.21-2.7,2.7-2.7s2.7,1.21,2.7,2.7-1.21,2.7-2.7,2.7-2.7-1.21-2.7-2.7Z"/><path class="cls-11" d="m622.46,385.4h6.1c.67,0,1,.33,1,1v4.4h-8.09v-4.4c0-.67.33-1,1-1Z"/><path class="cls-4" d="m625.81,379.71c0-1.49,1.21-2.7,2.7-2.7s2.7,1.21,2.7,2.7-1.21,2.7-2.7,2.7-2.7-1.21-2.7-2.7Z"/><path class="cls-4" d="m625.46,382.4h6.1c.67,0,1,.33,1,1v4.4h-8.09v-4.4c0-.67.33-1,1-1Z"/><path class="cls-5" d="m509.4,376.44v15.96c0,.13.05.25.14.34.09.09.21.14.34.14h17.29c.13,0,.25-.05.34-.14.09-.09.14-.21.14-.34v-15.96"/><path class="cls-21" d="m521.88,374.34c0-.43.43-.78.96-.78s.96.35.96.78v3.44c0,.43-.43.78-.96.78s-.96-.35-.96-.78v-3.44h0Zm-2.57,16.44c-.06,0-.1-.24-.1-.53s.04-.53.1-.53h2.62c.06,0,.1.24.1.53s-.04.53-.1.53h-2.62Zm-8.34-6.09c-.06,0-.1-.24-.1-.53s.04-.53.1-.53h2.62c.06,0,.1.24.1.53s-.04.53-.1.53h-2.62Zm4.17,0c-.06,0-.1-.24-.1-.53s.04-.53.1-.53h2.62c.06,0,.1.24.1.53s-.04.53-.1.53h-2.62Zm4.17,0c-.06,0-.1-.24-.1-.53s.04-.53.1-.53h2.62c.06,0,.1.24.1.53s-.04.53-.1.53h-2.62Zm4.17,0c-.06,0-.1-.24-.1-.53s.04-.53.1-.53h2.62c.06,0,.1.24.1.53s-.04.53-.1.53h-2.62Zm-12.51,3.05c-.06,0-.1-.24-.1-.53s.04-.53.1-.53h2.62c.06,0,.1.24.1.53s-.04.53-.1.53h-2.62Zm4.17,0c-.06,0-.1-.24-.1-.53s.04-.53.1-.53h2.62c.06,0,.1.24.1.53s-.04.53-.1.53h-2.62Zm4.17,0c-.06,0-.1-.24-.1-.53s.04-.53.1-.53h2.62c.06,0,.1.24.1.53s-.04.53-.1.53h-2.62Zm4.17,0c-.06,0-.1-.24-.1-.53s.04-.53.1-.53h2.62c.06,0,.1.24.1.53s-.04.53-.1.53h-2.62Zm-12.51,3.05c-.06,0-.1-.24-.1-.53s.04-.53.1-.53h2.62c.06,0,.1.24.1.53s-.04.53-.1.53h-2.62Zm4.17,0c-.06,0-.1-.24-.1-.53s.04-.53.1-.53h2.62c.06,0,.1.24.1.53s-.04.53-.1.53h-2.62Zm-1.89-16.44c0-.43.43-.78.96-.78s.96.35.96.78v3.44c0,.43-.43.78-.96.78s-.96-.35-.96-.78v-3.44h0Zm-3.85,6.73h18.26v-3.96c0-.13-.05-.25-.14-.34-.09-.09-.21-.14-.34-.14h-1.75c-.29,0-.53-.24-.53-.53s.24-.53.53-.53h1.75c.43,0,.81.17,1.09.45.28.28.45.67.45,1.09v15.28c0,.43-.17.81-.45,1.09s-.67.45-1.09.45h-17.29c-.43,0-.81-.17-1.09-.45-.28-.28-.45-.67-.45-1.1v-15.28c0-.43.17-.81.45-1.09.28-.28.67-.45,1.09-.45h1.87c.29,0,.53.24.53.53s-.24.53-.53.53h-1.87c-.13,0-.25.05-.34.14-.09.09-.14.21-.14.34v3.96h0Zm18.26,1.06h-18.26v10.26c0,.13.05.25.14.34.09.09.21.14.34.14h17.29c.13,0,.25-.05.34-.14.09-.09.14-.21.14-.34v-10.26h0Zm-10.96-5.51c-.29,0-.53-.24-.53-.53s.24-.53.53-.53h3.57c.29,0,.53.24.53.53s-.24.53-.53.53h-3.57Z"/><path class="cls-3" d="m516.15,85.75c-4.24,0-7.68-3.61-7.68-8.07v-14.14c0-4.46,3.44-8.07,7.68-8.07h163.14c4.24,0,7.68,3.61,7.68,8.07v14.14c0,4.46-3.44,8.07-7.68,8.07h-163.14Z"/><text class="cls-13" transform="translate(516.18 75.25)"><tspan x="0" y="0">G</tspan><tspan class="cls-20" x="7.75" y="0">r</tspan><tspan x="11.56" y="0">oep A</tspan></text><path class="cls-3" d="m516.15,121.75c-4.24,0-7.68-3.61-7.68-8.07v-14.14c0-4.46,3.44-8.07,7.68-8.07h163.14c4.24,0,7.68,3.61,7.68,8.07v14.14c0,4.46-3.44,8.07-7.68,8.07h-163.14Z"/><text class="cls-13" transform="translate(516.18 111.25)"><tspan x="0" y="0">G</tspan><tspan class="cls-20" x="7.75" y="0">r</tspan><tspan x="11.56" y="0">oep B</tspan></text><path class="cls-3" d="m516.15,157.75c-4.24,0-7.68-3.61-7.68-8.07v-14.14c0-4.46,3.44-8.07,7.68-8.07h163.14c4.24,0,7.68,3.61,7.68,8.07v14.14c0,4.46-3.44,8.07-7.68,8.07h-163.14Z"/><text class="cls-13" transform="translate(516.18 147.25)"><tspan x="0" y="0">G</tspan><tspan class="cls-20" x="7.75" y="0">r</tspan><tspan x="11.56" y="0">oep C</tspan></text><path class="cls-3" d="m275.15,358.75c-4.24,0-7.68-3.61-7.68-8.07v-14.14c0-4.46,3.44-8.07,7.68-8.07h163.14c4.24,0,7.68,3.61,7.68,8.07v14.14c0,4.46-3.44,8.07-7.68,8.07h-163.14Z"/><text class="cls-13" transform="translate(275.18 348.25)"><tspan class="cls-19" x="0" y="0">S</tspan><tspan x="5.99" y="0">chaken</tspan></text><path class="cls-3" d="m516.15,358.75c-4.24,0-7.68-3.61-7.68-8.07v-14.14c0-4.46,3.44-8.07,7.68-8.07h163.14c4.24,0,7.68,3.61,7.68,8.07v14.14c0,4.46-3.44,8.07-7.68,8.07h-163.14Z"/><text class="cls-13" transform="translate(516.18 348.25)"><tspan x="0" y="0">G</tspan><tspan class="cls-20" x="7.75" y="0">r</tspan><tspan x="11.56" y="0">oep C</tspan></text><path class="cls-21" d="m577.37,381.1c.49.84.79,1.71,1.4,2.44.1.1.19.21.3.25.15.08.34.05.5.02.7-.19,1.35-.75,1.88-1.28.85-.89,1.57-1.89,2.22-2.95.02-.03.06-.04.09-.02.03.02.04.05.03.08-.27,1.26-.74,2.47-1.39,3.59-2.43,4.26-6.01,2.83-6.99-1.48-.24-1.23,1.4-1.76,1.95-.65h0Z"/><path class="cls-21" d="m571.06,378.95c-.81-.69-1.54-1.44-2.49-1.92-2.32-1.23-3.42,3.35-3.64,4.97-.01.08-.13.07-.13,0-.35-2-.23-4.94,1.38-6.41,2.15-1.87,5.21.08,6.49,2.08.65,1.07-.71,2.15-1.61,1.29h0Z"/><path class="cls-23" d="m572.7,386.82c-.56-.56-1.13-.99-1.73-1.44-1.14-.83-2.23-1.59-3.55-2.04l-.23-.08c-.52-.17-1.11-.02-1.48.42-.49.58-.55,1.65.03,2.13.1.08.53.33,1.06.64-.11.11-.22.21-.34.32-1.27,1.21-2.44,2.54-3.66,3.8-1.52,1.55-3.19,3.22-4.74,4.74-.03.03-.04.08-.02.11.03.05.09.06.14.03,3.08-1.71,6.05-3.58,9-5.48.51-.34,1.06-.73,1.56-1.09.33-.24.66-.48.96-.75.5.31,1.01.64,1.44,1.01-.28.27-.62.48-.98.71-1.72,1.05-3.61,1.96-5.33,3.01-.09.05-.04.19.06.18,2.09-.31,4.14-.68,6.15-1.36.8-.3,1.62-.6,2.24-1.29,1.04-1.21.41-2.64-.58-3.59h0Z"/><circle class="cls-23" cx="576.72" cy="377.76" r="2.19"/><path class="cls-10" d="m495.1,22.5h206.8v377h-206.8V22.5Z"/><circle class="cls-21" cx="429.88" cy="71.31" r="6.67"/><line class="cls-8" x1="426.7" y1="68.12" x2="433.15" y2="74.57"/><line class="cls-8" x1="426.68" y1="74.48" x2="433.13" y2="68.04"/><circle class="cls-21" cx="429.88" cy="343.31" r="6.67"/><line class="cls-8" x1="429.89" y1="338.81" x2="429.89" y2="347.93"/><line class="cls-8" x1="425.38" y1="343.3" x2="434.49" y2="343.3"/><circle class="cls-21" cx="670.88" cy="71.31" r="6.67"/><line class="cls-8" x1="667.7" y1="68.12" x2="674.15" y2="74.57"/><line class="cls-8" x1="667.68" y1="74.48" x2="674.13" y2="68.04"/><circle class="cls-21" cx="670.88" cy="343.31" r="6.67"/><line class="cls-8" x1="670.89" y1="338.81" x2="670.89" y2="347.93"/><line class="cls-8" x1="666.38" y1="343.3" x2="675.49" y2="343.3"/><circle class="cls-21" cx="429.88" cy="107.31" r="6.67"/><line class="cls-8" x1="426.7" y1="104.12" x2="433.15" y2="110.57"/><line class="cls-8" x1="426.68" y1="110.48" x2="433.13" y2="104.04"/><circle class="cls-21" cx="429.88" cy="143.31" r="6.67"/><line class="cls-8" x1="426.7" y1="140.12" x2="433.15" y2="146.57"/><line class="cls-8" x1="426.68" y1="146.48" x2="433.13" y2="140.04"/><circle class="cls-21" cx="672.88" cy="107.31" r="6.67"/><line class="cls-8" x1="669.7" y1="104.12" x2="676.15" y2="110.57"/><line class="cls-8" x1="669.68" y1="110.48" x2="676.13" y2="104.04"/><circle class="cls-21" cx="672.88" cy="143.31" r="6.67"/><line class="cls-8" x1="669.7" y1="140.12" x2="676.15" y2="146.57"/><line class="cls-8" x1="669.68" y1="146.48" x2="676.13" y2="140.04"/><text class="cls-7" transform="translate(508.18 319.25)"><tspan x="0" y="0">Nieuwe groep</tspan></text><path class="cls-21" d="m75.09,408.81c12,19.51,26.16,38.02,43.9,52.67,17.27,14.26,37.79,24.74,60.08,28.06,12.58,1.88,25.31,1.82,37.99,1.86,11.95.04,23.9.45,35.84.59,23.06.27,46.78-.57,68.62-8.72,10.48-3.91,20.83-9.33,28.31-17.83s11.4-18.13,14.94-28.18c.9-2.55,1.76-5.12,2.61-7.7.61-1.84-2.29-2.62-2.89-.8-3.32,10.02-6.73,20.2-12.6,29.06-6.2,9.36-15.26,15.66-25.41,20.19-20.84,9.32-44.05,10.99-66.59,11.01-11.47.01-22.93-.41-34.39-.57-12.38-.17-24.78.18-37.13-.85-11.41-.95-22.55-3.41-33.19-7.68-10.13-4.08-19.66-9.64-28.42-16.14-17.95-13.32-32.46-30.8-44.61-49.42-1.52-2.34-3.01-4.69-4.47-7.07-1.01-1.64-3.61-.14-2.59,1.51h0Z"/><path class="cls-21" d="m355.25,437.87c1.07-1.59,2.3-3.06,3.7-4.38s2.96-2.75,4.72-3.45c1.92-.76,3.62.91,5.14,1.89,1.93,1.24,3.86,2.49,5.78,3.73,1.63,1.05,3.13-1.55,1.51-2.59-2.22-1.43-4.44-2.87-6.66-4.3-2.08-1.34-4.06-2.56-6.6-1.63-2.12.78-3.99,2.34-5.64,3.85-1.74,1.59-3.25,3.41-4.56,5.36-1.08,1.61,1.52,3.11,2.59,1.51h0Z"/><path class="cls-21" d="m135.08,401.82c23.42,30.32,52.35,55.6,81.73,79.95,14.47,11.99,29.03,24.09,45.18,33.81,16.41,9.87,34.28,16.33,53.08,19.86,18.88,3.54,38.17,4.57,57.34,4.93s38.38-.23,57.48-2.07c37.81-3.64,75.3-12.18,110.01-27.85,8.62-3.9,17.19-8.14,24.81-13.81s13.94-12.88,20.25-19.99c6.78-7.63,13.87-15.09,20.33-23,4.96-6.07,9.81-13.31,10.4-21.35.27-3.66-.64-7.18-2.56-10.29-.56-.9-1.59-.9-2.36-.3-9.87,7.63-18.98,16.15-27.25,25.48-1.28,1.44.84,3.57,2.12,2.12,8.27-9.33,17.39-17.85,27.25-25.48l-2.36-.3c4.69,7.58.83,16.29-3.65,22.99-5.32,7.96-12.37,14.87-18.71,22.01s-12.36,14.46-19.36,20.86c-6.94,6.35-15.06,11.1-23.48,15.22-33.4,16.33-70.08,25.52-106.9,29.8-18.34,2.13-36.82,3.07-55.29,3.07-18.71,0-37.57-.61-56.13-3.13-18.68-2.54-37.08-7.33-53.91-15.99-16.39-8.43-31.06-19.75-45.28-31.37-28.62-23.4-57.2-47.39-81.2-75.64-3.06-3.61-6.05-7.28-8.94-11.03-1.16-1.51-3.77-.01-2.59,1.51h0Z"/><path class="cls-21" d="m610.81,423.83c7.4,2.64,14.79,5.29,22.19,7.93,1.82.65,2.61-2.25.8-2.89-7.4-2.64-14.79-5.29-22.19-7.93-1.82-.65-2.61,2.25-.8,2.89h0Z"/></svg>